<svg width="170" height="19" viewBox="0 0 170 19" fill="none" xmlns="http://www.w3.org/2000/svg">
<path d="M0 16.12H16V0.12H0V16.12ZM26.8738 15V3.832H34.0098V5.8H29.2738V8.36H33.8498V10.328H29.2738V13.032H34.0098V15H26.8738ZM40.3235 15.192C39.6728 15.192 39.0862 15.096 38.5635 14.904C38.0515 14.7013 37.6142 14.4133 37.2515 14.04C36.8995 13.6667 36.6275 13.2133 36.4355 12.68C36.2435 12.1467 36.1475 11.544 36.1475 10.872C36.1475 10.2 36.2435 9.59733 36.4355 9.064C36.6275 8.53067 36.8995 8.07733 37.2515 7.704C37.6142 7.33067 38.0515 7.048 38.5635 6.856C39.0862 6.65333 39.6675 6.552 40.3075 6.552C41.2142 6.552 41.9395 6.73867 42.4835 7.112C43.0382 7.47467 43.4595 7.96 43.7475 8.568L41.9235 9.56C41.7742 9.24 41.5768 8.97333 41.3315 8.76C41.0968 8.54667 40.7555 8.44 40.3075 8.44C39.7635 8.44 39.3422 8.6 39.0435 8.92C38.7555 9.22933 38.6115 9.656 38.6115 10.2V11.544C38.6115 12.088 38.7555 12.52 39.0435 12.84C39.3422 13.1493 39.7742 13.304 40.3395 13.304C40.7982 13.304 41.1555 13.1973 41.4115 12.984C41.6782 12.7707 41.9022 12.4933 42.0835 12.152L43.8755 13.176C43.5768 13.784 43.1395 14.2747 42.5635 14.648C41.9982 15.0107 41.2515 15.192 40.3235 15.192ZM49.5813 15.192C48.9413 15.192 48.3653 15.096 47.8533 14.904C47.3413 14.7013 46.9039 14.4133 46.5413 14.04C46.1893 13.6667 45.9173 13.2133 45.7253 12.68C45.5333 12.1467 45.4373 11.544 45.4373 10.872C45.4373 10.2 45.5333 9.59733 45.7253 9.064C45.9173 8.53067 46.1893 8.07733 46.5413 7.704C46.9039 7.33067 47.3413 7.048 47.8533 6.856C48.3653 6.65333 48.9413 6.552 49.5813 6.552C50.2213 6.552 50.7973 6.65333 51.3093 6.856C51.8213 7.048 52.2533 7.33067 52.6053 7.704C52.9679 8.07733 53.2453 8.53067 53.4373 9.064C53.6293 9.59733 53.7253 10.2 53.7253 10.872C53.7253 11.544 53.6293 12.1467 53.4373 12.68C53.2453 13.2133 52.9679 13.6667 52.6053 14.04C52.2533 14.4133 51.8213 14.7013 51.3093 14.904C50.7973 15.096 50.2213 15.192 49.5813 15.192ZM49.5813 13.432C50.1146 13.432 50.5306 13.2667 50.8293 12.936C51.1279 12.6053 51.2773 12.136 51.2773 11.528V10.216C51.2773 9.608 51.1279 9.13867 50.8293 8.808C50.5306 8.47733 50.1146 8.312 49.5813 8.312C49.0479 8.312 48.6319 8.47733 48.3333 8.808C48.0346 9.13867 47.8853 9.608 47.8853 10.216V11.528C47.8853 12.136 48.0346 12.6053 48.3333 12.936C48.6319 13.2667 49.0479 13.432 49.5813 13.432ZM55.415 15V6.744H57.783V8.248H57.879C57.975 8.01333 58.0923 7.79467 58.231 7.592C58.3697 7.38933 58.535 7.21333 58.727 7.064C58.9297 6.904 59.159 6.78133 59.415 6.696C59.6817 6.6 59.9803 6.552 60.311 6.552C60.7057 6.552 61.0683 6.62133 61.399 6.76C61.7297 6.888 62.0123 7.08533 62.247 7.352C62.4817 7.61867 62.663 7.944 62.791 8.328C62.9297 8.712 62.999 9.15467 62.999 9.656V15H60.631V9.976C60.631 8.90933 60.167 8.376 59.239 8.376C59.0577 8.376 58.8763 8.40267 58.695 8.456C58.5243 8.49867 58.3697 8.57333 58.231 8.68C58.0923 8.776 57.9803 8.89867 57.895 9.048C57.8203 9.19733 57.783 9.37333 57.783 9.576V15H55.415ZM68.7688 15.192C68.1288 15.192 67.5528 15.096 67.0408 14.904C66.5288 14.7013 66.0914 14.4133 65.7288 14.04C65.3768 13.6667 65.1048 13.2133 64.9128 12.68C64.7208 12.1467 64.6248 11.544 64.6248 10.872C64.6248 10.2 64.7208 9.59733 64.9128 9.064C65.1048 8.53067 65.3768 8.07733 65.7288 7.704C66.0914 7.33067 66.5288 7.048 67.0408 6.856C67.5528 6.65333 68.1288 6.552 68.7688 6.552C69.4088 6.552 69.9848 6.65333 70.4968 6.856C71.0088 7.048 71.4408 7.33067 71.7928 7.704C72.1554 8.07733 72.4328 8.53067 72.6248 9.064C72.8168 9.59733 72.9128 10.2 72.9128 10.872C72.9128 11.544 72.8168 12.1467 72.6248 12.68C72.4328 13.2133 72.1554 13.6667 71.7928 14.04C71.4408 14.4133 71.0088 14.7013 70.4968 14.904C69.9848 15.096 69.4088 15.192 68.7688 15.192ZM68.7688 13.432C69.3021 13.432 69.7181 13.2667 70.0168 12.936C70.3154 12.6053 70.4648 12.136 70.4648 11.528V10.216C70.4648 9.608 70.3154 9.13867 70.0168 8.808C69.7181 8.47733 69.3021 8.312 68.7688 8.312C68.2354 8.312 67.8194 8.47733 67.5208 8.808C67.2221 9.13867 67.0728 9.608 67.0728 10.216V11.528C67.0728 12.136 67.2221 12.6053 67.5208 12.936C67.8194 13.2667 68.2354 13.432 68.7688 13.432ZM74.0425 15V6.744H75.9465V7.96H76.0585C76.1865 7.576 76.3678 7.24533 76.6025 6.968C76.8478 6.69067 77.1892 6.552 77.6265 6.552C78.4265 6.552 78.9172 7.02133 79.0985 7.96H79.1945C79.2585 7.768 79.3385 7.58667 79.4345 7.416C79.5305 7.24533 79.6478 7.096 79.7865 6.968C79.9252 6.84 80.0905 6.73867 80.2825 6.664C80.4745 6.58933 80.6985 6.552 80.9545 6.552C82.1065 6.552 82.6825 7.4 82.6825 9.096V15H80.7785V9.336C80.7785 8.952 80.7092 8.68533 80.5705 8.536C80.4425 8.376 80.2718 8.296 80.0585 8.296C79.8558 8.296 79.6798 8.36533 79.5305 8.504C79.3918 8.632 79.3225 8.83467 79.3225 9.112V15H77.4025V9.336C77.4025 8.952 77.3385 8.68533 77.2105 8.536C77.0932 8.376 76.9278 8.296 76.7145 8.296C76.5012 8.296 76.3198 8.36533 76.1705 8.504C76.0212 8.632 75.9465 8.83467 75.9465 9.112V15H74.0425ZM88.4683 5.688C87.9349 5.688 87.5616 5.58133 87.3483 5.368C87.1456 5.144 87.0443 4.87733 87.0443 4.568V4.104C87.0443 3.784 87.1456 3.51733 87.3483 3.304C87.5616 3.09067 87.9349 2.984 88.4683 2.984C89.0016 2.984 89.3696 3.09067 89.5723 3.304C89.7856 3.51733 89.8923 3.784 89.8923 4.104V4.568C89.8923 4.87733 89.7856 5.144 89.5723 5.368C89.3696 5.58133 89.0016 5.688 88.4683 5.688ZM84.6603 13.16H87.2843V8.584H84.6603V6.744H89.6523V13.16H92.0843V15H84.6603V13.16ZM97.886 15.192C97.2353 15.192 96.6487 15.096 96.126 14.904C95.614 14.7013 95.1767 14.4133 94.814 14.04C94.462 13.6667 94.19 13.2133 93.998 12.68C93.806 12.1467 93.71 11.544 93.71 10.872C93.71 10.2 93.806 9.59733 93.998 9.064C94.19 8.53067 94.462 8.07733 94.814 7.704C95.1767 7.33067 95.614 7.048 96.126 6.856C96.6487 6.65333 97.23 6.552 97.87 6.552C98.7767 6.552 99.502 6.73867 100.046 7.112C100.601 7.47467 101.022 7.96 101.31 8.568L99.486 9.56C99.3367 9.24 99.1393 8.97333 98.894 8.76C98.6593 8.54667 98.318 8.44 97.87 8.44C97.326 8.44 96.9047 8.6 96.606 8.92C96.318 9.22933 96.174 9.656 96.174 10.2V11.544C96.174 12.088 96.318 12.52 96.606 12.84C96.9047 13.1493 97.3367 13.304 97.902 13.304C98.3607 13.304 98.718 13.1973 98.974 12.984C99.2407 12.7707 99.4647 12.4933 99.646 12.152L101.438 13.176C101.139 13.784 100.702 14.2747 100.126 14.648C99.5607 15.0107 98.814 15.192 97.886 15.192ZM113.154 15V3.832H117.474C118.018 3.832 118.503 3.91733 118.93 4.088C119.356 4.248 119.714 4.48267 120.002 4.792C120.3 5.10133 120.524 5.47467 120.674 5.912C120.823 6.34933 120.898 6.84 120.898 7.384C120.898 7.928 120.823 8.41867 120.674 8.856C120.524 9.29333 120.3 9.66667 120.002 9.976C119.714 10.2853 119.356 10.5253 118.93 10.696C118.503 10.856 118.018 10.936 117.474 10.936H115.57V15H113.154ZM115.57 9H116.866C117.431 9 117.82 8.89333 118.034 8.68C118.258 8.46667 118.37 8.11467 118.37 7.624V7.144C118.37 6.65333 118.258 6.30133 118.034 6.088C117.82 5.87467 117.431 5.768 116.866 5.768H115.57V9ZM126.331 15.192C125.691 15.192 125.115 15.096 124.603 14.904C124.091 14.7013 123.654 14.4133 123.291 14.04C122.939 13.6667 122.667 13.2133 122.475 12.68C122.283 12.1467 122.187 11.544 122.187 10.872C122.187 10.2 122.283 9.59733 122.475 9.064C122.667 8.53067 122.939 8.07733 123.291 7.704C123.654 7.33067 124.091 7.048 124.603 6.856C125.115 6.65333 125.691 6.552 126.331 6.552C126.971 6.552 127.547 6.65333 128.059 6.856C128.571 7.048 129.003 7.33067 129.355 7.704C129.718 8.07733 129.995 8.53067 130.187 9.064C130.379 9.59733 130.475 10.2 130.475 10.872C130.475 11.544 130.379 12.1467 130.187 12.68C129.995 13.2133 129.718 13.6667 129.355 14.04C129.003 14.4133 128.571 14.7013 128.059 14.904C127.547 15.096 126.971 15.192 126.331 15.192ZM126.331 13.432C126.865 13.432 127.281 13.2667 127.579 12.936C127.878 12.6053 128.027 12.136 128.027 11.528V10.216C128.027 9.608 127.878 9.13867 127.579 8.808C127.281 8.47733 126.865 8.312 126.331 8.312C125.798 8.312 125.382 8.47733 125.083 8.808C124.785 9.13867 124.635 9.608 124.635 10.216V11.528C124.635 12.136 124.785 12.6053 125.083 12.936C125.382 13.2667 125.798 13.432 126.331 13.432ZM131.237 6.744H133.205L133.797 13.432H133.957L134.933 6.744H137.013L137.973 13.432H138.133L138.741 6.744H140.613L139.637 15H136.821L136.005 9.304H135.845L135.029 15H132.213L131.237 6.744ZM145.743 15.192C144.356 15.192 143.305 14.808 142.591 14.04C141.876 13.272 141.519 12.2267 141.519 10.904C141.519 10.232 141.609 9.62933 141.791 9.096C141.983 8.552 142.249 8.09333 142.591 7.72C142.943 7.336 143.364 7.048 143.855 6.856C144.356 6.65333 144.916 6.552 145.535 6.552C146.153 6.552 146.708 6.65333 147.199 6.856C147.689 7.048 148.105 7.32533 148.447 7.688C148.788 8.05067 149.049 8.49333 149.231 9.016C149.423 9.528 149.519 10.104 149.519 10.744V11.448H143.871V11.592C143.871 12.1253 144.036 12.5573 144.367 12.888C144.697 13.208 145.183 13.368 145.823 13.368C146.313 13.368 146.735 13.2773 147.087 13.096C147.439 12.904 147.743 12.6533 147.999 12.344L149.279 13.736C148.959 14.1307 148.511 14.472 147.935 14.76C147.359 15.048 146.628 15.192 145.743 15.192ZM145.551 8.248C145.039 8.248 144.628 8.408 144.319 8.728C144.02 9.03733 143.871 9.45867 143.871 9.992V10.12H147.199V9.992C147.199 9.448 147.049 9.02133 146.751 8.712C146.463 8.40267 146.063 8.248 145.551 8.248ZM151.497 13.16H153.401V8.584H151.497V6.744H155.769V9.08H155.881C155.955 8.78133 156.057 8.49333 156.185 8.216C156.323 7.928 156.494 7.67733 156.697 7.464C156.91 7.24 157.166 7.064 157.465 6.936C157.763 6.808 158.115 6.744 158.521 6.744H159.305V8.92H157.545C156.958 8.92 156.515 9.096 156.217 9.448C155.918 9.78933 155.769 10.2107 155.769 10.712V13.16H158.489V15H151.497V13.16ZM164.706 15.192C164.109 15.192 163.677 15.064 163.41 14.808C163.154 14.5413 163.026 14.2267 163.026 13.864V13.304C163.026 12.9413 163.154 12.632 163.41 12.376C163.677 12.1093 164.109 11.976 164.706 11.976C165.304 11.976 165.73 12.1093 165.986 12.376C166.253 12.632 166.386 12.9413 166.386 13.304V13.864C166.386 14.2267 166.253 14.5413 165.986 14.808C165.73 15.064 165.304 15.192 164.706 15.192ZM164.706 9.768C164.109 9.768 163.677 9.64 163.41 9.384C163.154 9.11733 163.026 8.80267 163.026 8.44V7.88C163.026 7.51733 163.154 7.208 163.41 6.952C163.677 6.68533 164.109 6.552 164.706 6.552C165.304 6.552 165.73 6.68533 165.986 6.952C166.253 7.208 166.386 7.51733 166.386 7.88V8.44C166.386 8.80267 166.253 9.11733 165.986 9.384C165.73 9.64 165.304 9.768 164.706 9.768Z" fill="black"/>
<path d="M0 17.4H169.506V19H0V17.4Z" fill="black"/>
</svg>
