<?xml version="1.0" encoding="UTF-8"?>
<svg id="Layer_2" data-name="Layer 2" xmlns="http://www.w3.org/2000/svg" xmlns:xlink="http://www.w3.org/1999/xlink" viewBox="0 0 289.1 344.28">
  <defs>
    <style>
      .cls-1 {
        fill: url(#linear-gradient-4);
      }

      .cls-1, .cls-2, .cls-3, .cls-4 {
        stroke: #231f20;
        stroke-miterlimit: 10;
        stroke-width: 3px;
      }

      .cls-2 {
        fill: url(#linear-gradient);
      }

      .cls-3 {
        fill: url(#linear-gradient-2);
      }

      .cls-4 {
        fill: url(#linear-gradient-3);
      }
    </style>
    <linearGradient id="linear-gradient" x1="135.86" y1="94.65" x2="235.07" y2="94.65" gradientUnits="userSpaceOnUse">
      <stop offset="0" stop-color="#e597c1"/>
      <stop offset="1" stop-color="#f8b962"/>
    </linearGradient>
    <linearGradient id="linear-gradient-2" x1="51.41" y1="172.27" x2="69.7" y2="172.27" xlink:href="#linear-gradient"/>
    <linearGradient id="linear-gradient-3" x1="137.75" y1="247.64" x2="237.04" y2="247.64" xlink:href="#linear-gradient"/>
    <linearGradient id="linear-gradient-4" x1="1.5" y1="172.14" x2="287.6" y2="172.14" xlink:href="#linear-gradient"/>
  </defs>
  <polygon class="cls-2" points="144.95 60.73 135.86 76.44 225.8 128.56 225.95 128.56 235.07 112.71 144.95 60.73"/>
  <polygon class="cls-3" points="69.64 109 51.41 109 51.41 235.55 69.7 235.55 69.64 109"/>
  <polygon class="cls-4" points="137.75 265.82 147 281.61 237.04 229.39 227.9 213.67 137.75 265.82"/>
  <path class="cls-1" d="m287.59,81.63L144.49,1.72,1.5,81.42v181.42l143.04,79.72,143.06-79.93V81.63Zm-21.62,165.37l-121.41,67.69L23.11,247.01V97.27L144.53,29.58l121.44,67.68v149.74Z"/>
</svg>