<svg width="32" height="37" viewBox="0 0 32 37" fill="none" xmlns="http://www.w3.org/2000/svg">
<mask id="path-1-outside-1_2_47" maskUnits="userSpaceOnUse" x="-1" y="-1" width="34" height="39" fill="black">
<rect fill="white" x="-1" y="-1" width="34" height="39"/>
<path d="M15.73 36.045L0.295 28.44V8.55L15.73 0.944998L31.165 8.55V28.44L15.73 36.045ZM5.785 25.47V11.52H7.72V25.47H5.785ZM16.135 29.79L15.28 28.035L25.09 23.175L25.99 24.93L16.135 29.79ZM15.73 32.67L28.105 26.64V10.35L15.73 4.32L3.355 10.35V26.64L15.73 32.67ZM25.09 13.815L15.28 8.955L16.135 7.2L25.99 12.06L25.09 13.815Z"/>
</mask>
<path d="M15.73 36.045L0.295 28.44V8.55L15.73 0.944998L31.165 8.55V28.44L15.73 36.045ZM5.785 25.47V11.52H7.72V25.47H5.785ZM16.135 29.79L15.28 28.035L25.09 23.175L25.99 24.93L16.135 29.79ZM15.73 32.67L28.105 26.64V10.35L15.73 4.32L3.355 10.35V26.64L15.73 32.67ZM25.09 13.815L15.28 8.955L16.135 7.2L25.99 12.06L25.09 13.815Z" fill="url(#paint0_linear_2_47)"/>
<path d="M15.73 36.045L15.288 36.942L15.73 37.1598L16.172 36.942L15.73 36.045ZM0.295 28.44H-0.705V29.0621L-0.146975 29.337L0.295 28.44ZM0.295 8.55L-0.146975 7.65297L-0.705 7.92792V8.55H0.295ZM15.73 0.944998L16.172 0.0479708L15.73 -0.169795L15.288 0.0479708L15.73 0.944998ZM31.165 8.55H32.165V7.92792L31.607 7.65297L31.165 8.55ZM31.165 28.44L31.607 29.337L32.165 29.0621V28.44H31.165ZM5.785 25.47H4.785V26.47H5.785V25.47ZM5.785 11.52V10.52H4.785V11.52H5.785ZM7.72 11.52H8.72V10.52H7.72V11.52ZM7.72 25.47V26.47H8.72V25.47H7.72ZM16.135 29.79L15.236 30.228L15.6761 31.1313L16.5773 30.6869L16.135 29.79ZM15.28 28.035L14.8361 27.1389L13.9459 27.5799L14.381 28.473L15.28 28.035ZM25.09 23.175L25.9798 22.7187L25.5298 21.8411L24.6461 22.2789L25.09 23.175ZM25.99 24.93L26.4323 25.8269L27.3434 25.3776L26.8798 24.4737L25.99 24.93ZM15.73 32.67L15.292 33.569L15.73 33.7824L16.168 33.569L15.73 32.67ZM28.105 26.64L28.543 27.539L29.105 27.2651V26.64H28.105ZM28.105 10.35H29.105V9.72487L28.543 9.45104L28.105 10.35ZM15.73 4.32L16.168 3.42104L15.73 3.2076L15.292 3.42104L15.73 4.32ZM3.355 10.35L2.91696 9.45104L2.355 9.72487V10.35H3.355ZM3.355 26.64H2.355V27.2651L2.91696 27.539L3.355 26.64ZM25.09 13.815L24.6461 14.7111L25.5298 15.1489L25.9798 14.2713L25.09 13.815ZM15.28 8.955L14.381 8.51703L13.9459 9.41008L14.8361 9.85106L15.28 8.955ZM16.135 7.2L16.5773 6.30313L15.6761 5.8587L15.236 6.76203L16.135 7.2ZM25.99 12.06L26.8798 12.5163L27.3434 11.6124L26.4323 11.1631L25.99 12.06ZM16.172 35.148L0.736976 27.543L-0.146975 29.337L15.288 36.942L16.172 35.148ZM1.295 28.44V8.55H-0.705V28.44H1.295ZM0.736976 9.44703L16.172 1.84202L15.288 0.0479708L-0.146975 7.65297L0.736976 9.44703ZM15.288 1.84202L30.723 9.44703L31.607 7.65297L16.172 0.0479708L15.288 1.84202ZM30.165 8.55V28.44H32.165V8.55H30.165ZM30.723 27.543L15.288 35.148L16.172 36.942L31.607 29.337L30.723 27.543ZM6.785 25.47V11.52H4.785V25.47H6.785ZM5.785 12.52H7.72V10.52H5.785V12.52ZM6.72 11.52V25.47H8.72V11.52H6.72ZM7.72 24.47H5.785V26.47H7.72V24.47ZM17.034 29.352L16.179 27.597L14.381 28.473L15.236 30.228L17.034 29.352ZM15.7239 28.9311L25.5339 24.0711L24.6461 22.2789L14.8361 27.1389L15.7239 28.9311ZM24.2002 23.6313L25.1002 25.3863L26.8798 24.4737L25.9798 22.7187L24.2002 23.6313ZM25.5477 24.0331L15.6927 28.8931L16.5773 30.6869L26.4323 25.8269L25.5477 24.0331ZM16.168 33.569L28.543 27.539L27.667 25.741L15.292 31.771L16.168 33.569ZM29.105 26.64V10.35H27.105V26.64H29.105ZM28.543 9.45104L16.168 3.42104L15.292 5.21895L27.667 11.249L28.543 9.45104ZM15.292 3.42104L2.91696 9.45104L3.79304 11.249L16.168 5.21895L15.292 3.42104ZM2.355 10.35V26.64H4.355V10.35H2.355ZM2.91696 27.539L15.292 33.569L16.168 31.771L3.79304 25.741L2.91696 27.539ZM25.5339 12.9189L15.7239 8.05893L14.8361 9.85106L24.6461 14.7111L25.5339 12.9189ZM16.179 9.39297L17.034 7.63797L15.236 6.76203L14.381 8.51703L16.179 9.39297ZM15.6927 8.09687L25.5477 12.9569L26.4323 11.1631L16.5773 6.30313L15.6927 8.09687ZM25.1002 11.6037L24.2002 13.3587L25.9798 14.2713L26.8798 12.5163L25.1002 11.6037Z" fill="black" mask="url(#path-1-outside-1_2_47)"/>
<defs>
<linearGradient id="paint0_linear_2_47" x1="-5.26667" y1="-10" x2="39.3766" y2="-9.16648" gradientUnits="userSpaceOnUse">
<stop stop-color="white"/>
<stop offset="0.085" stop-color="#FF76D9"/>
<stop offset="1" stop-color="#FDD33E"/>
</linearGradient>
</defs>
</svg>
