<svg width="153" height="21" viewBox="0 0 153 21" fill="none" xmlns="http://www.w3.org/2000/svg">
<mask id="path-1-outside-1_2_46" maskUnits="userSpaceOnUse" x="-2" y="-1" width="157" height="23" fill="black">
<rect fill="white" x="-2" y="-1" width="157" height="23"/>
<path d="M6.748 20.312C5.11867 20.312 3.784 20.0173 2.744 19.428C1.704 18.8213 0.846 18.05 0.17 17.114L1.756 15.814C2.46667 16.698 3.212 17.3567 3.992 17.79C4.78933 18.2233 5.734 18.44 6.826 18.44C8.14333 18.44 9.14867 18.1367 9.842 17.53C10.5353 16.9233 10.882 16.074 10.882 14.982C10.882 14.098 10.6307 13.4133 10.128 12.928C9.62533 12.4253 8.75 12.07 7.502 11.862L5.474 11.524C4.59 11.368 3.84467 11.134 3.238 10.822C2.64867 10.51 2.172 10.1373 1.808 9.704C1.444 9.25333 1.184 8.768 1.028 8.248C0.872 7.71067 0.794 7.156 0.794 6.584C0.794 4.92 1.34 3.66333 2.432 2.814C3.524 1.96467 4.99733 1.54 6.852 1.54C8.308 1.54 9.53 1.78267 10.518 2.268C11.5233 2.75333 12.3293 3.438 12.936 4.322L11.402 5.648C10.8993 4.98933 10.2927 4.452 9.582 4.036C8.87133 3.62 7.95267 3.412 6.826 3.412C5.59533 3.412 4.65067 3.672 3.992 4.192C3.33333 4.712 3.004 5.492 3.004 6.532C3.004 7.34667 3.24667 8.014 3.732 8.534C4.23467 9.03667 5.12733 9.40067 6.41 9.626L8.36 9.964C9.244 10.12 9.98933 10.354 10.596 10.666C11.2027 10.978 11.688 11.3507 12.052 11.784C12.4333 12.2173 12.702 12.7027 12.858 13.24C13.014 13.7773 13.092 14.3407 13.092 14.93C13.092 16.6113 12.5373 17.9287 11.428 18.882C10.336 19.8353 8.776 20.312 6.748 20.312ZM23.0398 20C22.0172 20 21.2632 19.714 20.7778 19.142C20.3098 18.57 20.0758 17.8333 20.0758 16.932V8.352H15.6038V6.584H18.9318C19.3825 6.584 19.6945 6.49733 19.8678 6.324C20.0585 6.13333 20.1538 5.81267 20.1538 5.362V1.852H22.1558V6.584H28.2658V8.352H22.1558V18.232H28.2658V20H23.0398ZM43.0497 20C42.235 20 41.6544 19.792 41.3077 19.376C40.961 18.96 40.7444 18.44 40.6577 17.816H40.5277C40.233 18.596 39.7564 19.2113 39.0977 19.662C38.4564 20.0953 37.5897 20.312 36.4977 20.312C35.0937 20.312 33.9757 19.948 33.1437 19.22C32.3117 18.492 31.8957 17.4953 31.8957 16.23C31.8957 14.982 32.3464 14.02 33.2477 13.344C34.1664 12.668 35.6397 12.33 37.6677 12.33H40.5277V11.004C40.5277 10.016 40.2504 9.27933 39.6957 8.794C39.141 8.29133 38.3524 8.04 37.3297 8.04C36.4284 8.04 35.6917 8.222 35.1197 8.586C34.5477 8.93267 34.0884 9.40933 33.7417 10.016L32.3377 8.976C32.511 8.62933 32.745 8.29133 33.0397 7.962C33.3344 7.63267 33.6984 7.34667 34.1317 7.104C34.565 6.844 35.059 6.64467 35.6137 6.506C36.1684 6.35 36.7837 6.272 37.4597 6.272C39.037 6.272 40.285 6.67067 41.2037 7.468C42.1397 8.26533 42.6077 9.37467 42.6077 10.796V18.18H44.4797V20H43.0497ZM36.8617 18.57C37.399 18.57 37.8844 18.5093 38.3177 18.388C38.7684 18.2493 39.1584 18.076 39.4877 17.868C39.817 17.6427 40.0684 17.3827 40.2417 17.088C40.4324 16.776 40.5277 16.4467 40.5277 16.1V13.89H37.6677C36.4197 13.89 35.5097 14.0633 34.9377 14.41C34.3657 14.7567 34.0797 15.2593 34.0797 15.918V16.464C34.0797 17.1573 34.3224 17.686 34.8077 18.05C35.3104 18.3967 35.995 18.57 36.8617 18.57ZM54.2195 20C53.1969 20 52.4429 19.714 51.9575 19.142C51.4895 18.57 51.2555 17.8333 51.2555 16.932V8.352H46.7835V6.584H50.1115C50.5622 6.584 50.8742 6.49733 51.0475 6.324C51.2382 6.13333 51.3335 5.81267 51.3335 5.362V1.852H53.3355V6.584H59.4455V8.352H53.3355V18.232H59.4455V20H54.2195ZM69.9914 3.62C69.3847 3.62 68.96 3.49867 68.7174 3.256C68.4747 2.996 68.3534 2.67533 68.3534 2.294V1.878C68.3534 1.49667 68.4747 1.18467 68.7174 0.941999C68.96 0.681999 69.3847 0.551999 69.9914 0.551999C70.598 0.551999 71.0227 0.681999 71.2654 0.941999C71.508 1.18467 71.6294 1.49667 71.6294 1.878V2.294C71.6294 2.67533 71.508 2.996 71.2654 3.256C71.0227 3.49867 70.598 3.62 69.9914 3.62ZM64.1154 18.232H68.9514V8.352H64.1154V6.584H71.0314V18.232H75.5554V20H64.1154V18.232ZM84.9052 20.312C83.5012 20.312 82.2879 20.078 81.2652 19.61C80.2599 19.1247 79.4019 18.4833 78.6912 17.686L80.0952 16.464C80.7366 17.14 81.4386 17.66 82.2012 18.024C82.9639 18.388 83.8826 18.57 84.9572 18.57C85.9972 18.57 86.8466 18.388 87.5052 18.024C88.1812 17.6427 88.5192 17.0533 88.5192 16.256C88.5192 15.9093 88.4499 15.6233 88.3112 15.398C88.1899 15.1553 88.0166 14.9647 87.7912 14.826C87.5659 14.6873 87.3146 14.5833 87.0372 14.514C86.7599 14.4273 86.4652 14.358 86.1532 14.306L84.0472 13.994C83.5792 13.9247 83.0679 13.8293 82.5132 13.708C81.9759 13.5867 81.4819 13.396 81.0312 13.136C80.5806 12.8587 80.1992 12.4947 79.8872 12.044C79.5926 11.5933 79.4452 11.004 79.4452 10.276C79.4452 9.6 79.5752 9.01933 79.8352 8.534C80.1126 8.03133 80.4939 7.61533 80.9792 7.286C81.4646 6.93933 82.0366 6.688 82.6952 6.532C83.3539 6.35867 84.0732 6.272 84.8532 6.272C86.0666 6.272 87.1152 6.46267 87.9992 6.844C88.9006 7.22533 89.6719 7.754 90.3132 8.43L88.9612 9.704C88.8052 9.51333 88.6059 9.32267 88.3632 9.132C88.1379 8.924 87.8519 8.742 87.5052 8.586C87.1759 8.41267 86.7859 8.274 86.3352 8.17C85.8846 8.066 85.3646 8.014 84.7752 8.014C83.7179 8.014 82.9032 8.196 82.3312 8.56C81.7766 8.924 81.4992 9.45267 81.4992 10.146C81.4992 10.4927 81.5599 10.7873 81.6812 11.03C81.8199 11.2553 82.0019 11.4373 82.2272 11.576C82.4526 11.7147 82.7039 11.8273 82.9812 11.914C83.2759 11.9833 83.5706 12.044 83.8652 12.096L85.9712 12.408C86.4566 12.4773 86.9679 12.5727 87.5052 12.694C88.0426 12.8153 88.5366 13.0147 88.9872 13.292C89.4379 13.552 89.8106 13.9073 90.1052 14.358C90.4172 14.8087 90.5732 15.398 90.5732 16.126C90.5732 17.4607 90.0532 18.492 89.0132 19.22C87.9906 19.948 86.6212 20.312 84.9052 20.312ZM100.989 20C99.9664 20 99.2124 19.714 98.7271 19.142C98.2591 18.57 98.0251 17.8333 98.0251 16.932V8.352H93.5531V6.584H96.8811C97.3317 6.584 97.6437 6.49733 97.8171 6.324C98.0077 6.13333 98.1031 5.81267 98.1031 5.362V1.852H100.105V6.584H106.215V8.352H100.105V18.232H106.215V20H100.989ZM116.761 3.62C116.154 3.62 115.73 3.49867 115.487 3.256C115.244 2.996 115.123 2.67533 115.123 2.294V1.878C115.123 1.49667 115.244 1.18467 115.487 0.941999C115.73 0.681999 116.154 0.551999 116.761 0.551999C117.368 0.551999 117.792 0.681999 118.035 0.941999C118.278 1.18467 118.399 1.49667 118.399 1.878V2.294C118.399 2.67533 118.278 2.996 118.035 3.256C117.792 3.49867 117.368 3.62 116.761 3.62ZM110.885 18.232H115.721V8.352H110.885V6.584H117.801V18.232H122.325V20H110.885V18.232ZM131.987 20.312C131.016 20.312 130.149 20.1473 129.387 19.818C128.641 19.4713 128.009 18.9947 127.489 18.388C126.969 17.7813 126.57 17.0447 126.293 16.178C126.033 15.3113 125.903 14.3493 125.903 13.292C125.903 12.2347 126.041 11.2727 126.319 10.406C126.596 9.53933 126.995 8.80267 127.515 8.196C128.035 7.572 128.667 7.09533 129.413 6.766C130.158 6.43667 131.007 6.272 131.961 6.272C133.261 6.272 134.318 6.558 135.133 7.13C135.947 7.702 136.545 8.44733 136.927 9.366L135.263 10.25C135.02 9.55667 134.613 9.01933 134.041 8.638C133.486 8.25667 132.793 8.066 131.961 8.066C131.354 8.066 130.808 8.17 130.323 8.378C129.855 8.56867 129.456 8.846 129.127 9.21C128.797 9.574 128.546 10.0073 128.373 10.51C128.217 11.0127 128.139 11.5587 128.139 12.148V14.436C128.139 15.0253 128.217 15.5713 128.373 16.074C128.546 16.5767 128.797 17.01 129.127 17.374C129.456 17.738 129.863 18.024 130.349 18.232C130.834 18.4227 131.389 18.518 132.013 18.518C132.914 18.518 133.659 18.31 134.249 17.894C134.838 17.478 135.306 16.906 135.653 16.178L137.135 17.192C136.736 18.0933 136.112 18.8387 135.263 19.428C134.431 20.0173 133.339 20.312 131.987 20.312ZM147.265 20.312C145.861 20.312 144.647 20.078 143.625 19.61C142.619 19.1247 141.761 18.4833 141.051 17.686L142.455 16.464C143.096 17.14 143.798 17.66 144.561 18.024C145.323 18.388 146.242 18.57 147.317 18.57C148.357 18.57 149.206 18.388 149.865 18.024C150.541 17.6427 150.879 17.0533 150.879 16.256C150.879 15.9093 150.809 15.6233 150.671 15.398C150.549 15.1553 150.376 14.9647 150.151 14.826C149.925 14.6873 149.674 14.5833 149.397 14.514C149.119 14.4273 148.825 14.358 148.513 14.306L146.407 13.994C145.939 13.9247 145.427 13.8293 144.873 13.708C144.335 13.5867 143.841 13.396 143.391 13.136C142.94 12.8587 142.559 12.4947 142.247 12.044C141.952 11.5933 141.805 11.004 141.805 10.276C141.805 9.6 141.935 9.01933 142.195 8.534C142.472 8.03133 142.853 7.61533 143.339 7.286C143.824 6.93933 144.396 6.688 145.055 6.532C145.713 6.35867 146.433 6.272 147.213 6.272C148.426 6.272 149.475 6.46267 150.359 6.844C151.26 7.22533 152.031 7.754 152.673 8.43L151.321 9.704C151.165 9.51333 150.965 9.32267 150.723 9.132C150.497 8.924 150.211 8.742 149.865 8.586C149.535 8.41267 149.145 8.274 148.695 8.17C148.244 8.066 147.724 8.014 147.135 8.014C146.077 8.014 145.263 8.196 144.691 8.56C144.136 8.924 143.859 9.45267 143.859 10.146C143.859 10.4927 143.919 10.7873 144.041 11.03C144.179 11.2553 144.361 11.4373 144.587 11.576C144.812 11.7147 145.063 11.8273 145.341 11.914C145.635 11.9833 145.93 12.044 146.225 12.096L148.331 12.408C148.816 12.4773 149.327 12.5727 149.865 12.694C150.402 12.8153 150.896 13.0147 151.347 13.292C151.797 13.552 152.17 13.9073 152.465 14.358C152.777 14.8087 152.933 15.398 152.933 16.126C152.933 17.4607 152.413 18.492 151.373 19.22C150.35 19.948 148.981 20.312 147.265 20.312Z"/>
</mask>
<path d="M6.748 20.312C5.11867 20.312 3.784 20.0173 2.744 19.428C1.704 18.8213 0.846 18.05 0.17 17.114L1.756 15.814C2.46667 16.698 3.212 17.3567 3.992 17.79C4.78933 18.2233 5.734 18.44 6.826 18.44C8.14333 18.44 9.14867 18.1367 9.842 17.53C10.5353 16.9233 10.882 16.074 10.882 14.982C10.882 14.098 10.6307 13.4133 10.128 12.928C9.62533 12.4253 8.75 12.07 7.502 11.862L5.474 11.524C4.59 11.368 3.84467 11.134 3.238 10.822C2.64867 10.51 2.172 10.1373 1.808 9.704C1.444 9.25333 1.184 8.768 1.028 8.248C0.872 7.71067 0.794 7.156 0.794 6.584C0.794 4.92 1.34 3.66333 2.432 2.814C3.524 1.96467 4.99733 1.54 6.852 1.54C8.308 1.54 9.53 1.78267 10.518 2.268C11.5233 2.75333 12.3293 3.438 12.936 4.322L11.402 5.648C10.8993 4.98933 10.2927 4.452 9.582 4.036C8.87133 3.62 7.95267 3.412 6.826 3.412C5.59533 3.412 4.65067 3.672 3.992 4.192C3.33333 4.712 3.004 5.492 3.004 6.532C3.004 7.34667 3.24667 8.014 3.732 8.534C4.23467 9.03667 5.12733 9.40067 6.41 9.626L8.36 9.964C9.244 10.12 9.98933 10.354 10.596 10.666C11.2027 10.978 11.688 11.3507 12.052 11.784C12.4333 12.2173 12.702 12.7027 12.858 13.24C13.014 13.7773 13.092 14.3407 13.092 14.93C13.092 16.6113 12.5373 17.9287 11.428 18.882C10.336 19.8353 8.776 20.312 6.748 20.312ZM23.0398 20C22.0172 20 21.2632 19.714 20.7778 19.142C20.3098 18.57 20.0758 17.8333 20.0758 16.932V8.352H15.6038V6.584H18.9318C19.3825 6.584 19.6945 6.49733 19.8678 6.324C20.0585 6.13333 20.1538 5.81267 20.1538 5.362V1.852H22.1558V6.584H28.2658V8.352H22.1558V18.232H28.2658V20H23.0398ZM43.0497 20C42.235 20 41.6544 19.792 41.3077 19.376C40.961 18.96 40.7444 18.44 40.6577 17.816H40.5277C40.233 18.596 39.7564 19.2113 39.0977 19.662C38.4564 20.0953 37.5897 20.312 36.4977 20.312C35.0937 20.312 33.9757 19.948 33.1437 19.22C32.3117 18.492 31.8957 17.4953 31.8957 16.23C31.8957 14.982 32.3464 14.02 33.2477 13.344C34.1664 12.668 35.6397 12.33 37.6677 12.33H40.5277V11.004C40.5277 10.016 40.2504 9.27933 39.6957 8.794C39.141 8.29133 38.3524 8.04 37.3297 8.04C36.4284 8.04 35.6917 8.222 35.1197 8.586C34.5477 8.93267 34.0884 9.40933 33.7417 10.016L32.3377 8.976C32.511 8.62933 32.745 8.29133 33.0397 7.962C33.3344 7.63267 33.6984 7.34667 34.1317 7.104C34.565 6.844 35.059 6.64467 35.6137 6.506C36.1684 6.35 36.7837 6.272 37.4597 6.272C39.037 6.272 40.285 6.67067 41.2037 7.468C42.1397 8.26533 42.6077 9.37467 42.6077 10.796V18.18H44.4797V20H43.0497ZM36.8617 18.57C37.399 18.57 37.8844 18.5093 38.3177 18.388C38.7684 18.2493 39.1584 18.076 39.4877 17.868C39.817 17.6427 40.0684 17.3827 40.2417 17.088C40.4324 16.776 40.5277 16.4467 40.5277 16.1V13.89H37.6677C36.4197 13.89 35.5097 14.0633 34.9377 14.41C34.3657 14.7567 34.0797 15.2593 34.0797 15.918V16.464C34.0797 17.1573 34.3224 17.686 34.8077 18.05C35.3104 18.3967 35.995 18.57 36.8617 18.57ZM54.2195 20C53.1969 20 52.4429 19.714 51.9575 19.142C51.4895 18.57 51.2555 17.8333 51.2555 16.932V8.352H46.7835V6.584H50.1115C50.5622 6.584 50.8742 6.49733 51.0475 6.324C51.2382 6.13333 51.3335 5.81267 51.3335 5.362V1.852H53.3355V6.584H59.4455V8.352H53.3355V18.232H59.4455V20H54.2195ZM69.9914 3.62C69.3847 3.62 68.96 3.49867 68.7174 3.256C68.4747 2.996 68.3534 2.67533 68.3534 2.294V1.878C68.3534 1.49667 68.4747 1.18467 68.7174 0.941999C68.96 0.681999 69.3847 0.551999 69.9914 0.551999C70.598 0.551999 71.0227 0.681999 71.2654 0.941999C71.508 1.18467 71.6294 1.49667 71.6294 1.878V2.294C71.6294 2.67533 71.508 2.996 71.2654 3.256C71.0227 3.49867 70.598 3.62 69.9914 3.62ZM64.1154 18.232H68.9514V8.352H64.1154V6.584H71.0314V18.232H75.5554V20H64.1154V18.232ZM84.9052 20.312C83.5012 20.312 82.2879 20.078 81.2652 19.61C80.2599 19.1247 79.4019 18.4833 78.6912 17.686L80.0952 16.464C80.7366 17.14 81.4386 17.66 82.2012 18.024C82.9639 18.388 83.8826 18.57 84.9572 18.57C85.9972 18.57 86.8466 18.388 87.5052 18.024C88.1812 17.6427 88.5192 17.0533 88.5192 16.256C88.5192 15.9093 88.4499 15.6233 88.3112 15.398C88.1899 15.1553 88.0166 14.9647 87.7912 14.826C87.5659 14.6873 87.3146 14.5833 87.0372 14.514C86.7599 14.4273 86.4652 14.358 86.1532 14.306L84.0472 13.994C83.5792 13.9247 83.0679 13.8293 82.5132 13.708C81.9759 13.5867 81.4819 13.396 81.0312 13.136C80.5806 12.8587 80.1992 12.4947 79.8872 12.044C79.5926 11.5933 79.4452 11.004 79.4452 10.276C79.4452 9.6 79.5752 9.01933 79.8352 8.534C80.1126 8.03133 80.4939 7.61533 80.9792 7.286C81.4646 6.93933 82.0366 6.688 82.6952 6.532C83.3539 6.35867 84.0732 6.272 84.8532 6.272C86.0666 6.272 87.1152 6.46267 87.9992 6.844C88.9006 7.22533 89.6719 7.754 90.3132 8.43L88.9612 9.704C88.8052 9.51333 88.6059 9.32267 88.3632 9.132C88.1379 8.924 87.8519 8.742 87.5052 8.586C87.1759 8.41267 86.7859 8.274 86.3352 8.17C85.8846 8.066 85.3646 8.014 84.7752 8.014C83.7179 8.014 82.9032 8.196 82.3312 8.56C81.7766 8.924 81.4992 9.45267 81.4992 10.146C81.4992 10.4927 81.5599 10.7873 81.6812 11.03C81.8199 11.2553 82.0019 11.4373 82.2272 11.576C82.4526 11.7147 82.7039 11.8273 82.9812 11.914C83.2759 11.9833 83.5706 12.044 83.8652 12.096L85.9712 12.408C86.4566 12.4773 86.9679 12.5727 87.5052 12.694C88.0426 12.8153 88.5366 13.0147 88.9872 13.292C89.4379 13.552 89.8106 13.9073 90.1052 14.358C90.4172 14.8087 90.5732 15.398 90.5732 16.126C90.5732 17.4607 90.0532 18.492 89.0132 19.22C87.9906 19.948 86.6212 20.312 84.9052 20.312ZM100.989 20C99.9664 20 99.2124 19.714 98.7271 19.142C98.2591 18.57 98.0251 17.8333 98.0251 16.932V8.352H93.5531V6.584H96.8811C97.3317 6.584 97.6437 6.49733 97.8171 6.324C98.0077 6.13333 98.1031 5.81267 98.1031 5.362V1.852H100.105V6.584H106.215V8.352H100.105V18.232H106.215V20H100.989ZM116.761 3.62C116.154 3.62 115.73 3.49867 115.487 3.256C115.244 2.996 115.123 2.67533 115.123 2.294V1.878C115.123 1.49667 115.244 1.18467 115.487 0.941999C115.73 0.681999 116.154 0.551999 116.761 0.551999C117.368 0.551999 117.792 0.681999 118.035 0.941999C118.278 1.18467 118.399 1.49667 118.399 1.878V2.294C118.399 2.67533 118.278 2.996 118.035 3.256C117.792 3.49867 117.368 3.62 116.761 3.62ZM110.885 18.232H115.721V8.352H110.885V6.584H117.801V18.232H122.325V20H110.885V18.232ZM131.987 20.312C131.016 20.312 130.149 20.1473 129.387 19.818C128.641 19.4713 128.009 18.9947 127.489 18.388C126.969 17.7813 126.57 17.0447 126.293 16.178C126.033 15.3113 125.903 14.3493 125.903 13.292C125.903 12.2347 126.041 11.2727 126.319 10.406C126.596 9.53933 126.995 8.80267 127.515 8.196C128.035 7.572 128.667 7.09533 129.413 6.766C130.158 6.43667 131.007 6.272 131.961 6.272C133.261 6.272 134.318 6.558 135.133 7.13C135.947 7.702 136.545 8.44733 136.927 9.366L135.263 10.25C135.02 9.55667 134.613 9.01933 134.041 8.638C133.486 8.25667 132.793 8.066 131.961 8.066C131.354 8.066 130.808 8.17 130.323 8.378C129.855 8.56867 129.456 8.846 129.127 9.21C128.797 9.574 128.546 10.0073 128.373 10.51C128.217 11.0127 128.139 11.5587 128.139 12.148V14.436C128.139 15.0253 128.217 15.5713 128.373 16.074C128.546 16.5767 128.797 17.01 129.127 17.374C129.456 17.738 129.863 18.024 130.349 18.232C130.834 18.4227 131.389 18.518 132.013 18.518C132.914 18.518 133.659 18.31 134.249 17.894C134.838 17.478 135.306 16.906 135.653 16.178L137.135 17.192C136.736 18.0933 136.112 18.8387 135.263 19.428C134.431 20.0173 133.339 20.312 131.987 20.312ZM147.265 20.312C145.861 20.312 144.647 20.078 143.625 19.61C142.619 19.1247 141.761 18.4833 141.051 17.686L142.455 16.464C143.096 17.14 143.798 17.66 144.561 18.024C145.323 18.388 146.242 18.57 147.317 18.57C148.357 18.57 149.206 18.388 149.865 18.024C150.541 17.6427 150.879 17.0533 150.879 16.256C150.879 15.9093 150.809 15.6233 150.671 15.398C150.549 15.1553 150.376 14.9647 150.151 14.826C149.925 14.6873 149.674 14.5833 149.397 14.514C149.119 14.4273 148.825 14.358 148.513 14.306L146.407 13.994C145.939 13.9247 145.427 13.8293 144.873 13.708C144.335 13.5867 143.841 13.396 143.391 13.136C142.94 12.8587 142.559 12.4947 142.247 12.044C141.952 11.5933 141.805 11.004 141.805 10.276C141.805 9.6 141.935 9.01933 142.195 8.534C142.472 8.03133 142.853 7.61533 143.339 7.286C143.824 6.93933 144.396 6.688 145.055 6.532C145.713 6.35867 146.433 6.272 147.213 6.272C148.426 6.272 149.475 6.46267 150.359 6.844C151.26 7.22533 152.031 7.754 152.673 8.43L151.321 9.704C151.165 9.51333 150.965 9.32267 150.723 9.132C150.497 8.924 150.211 8.742 149.865 8.586C149.535 8.41267 149.145 8.274 148.695 8.17C148.244 8.066 147.724 8.014 147.135 8.014C146.077 8.014 145.263 8.196 144.691 8.56C144.136 8.924 143.859 9.45267 143.859 10.146C143.859 10.4927 143.919 10.7873 144.041 11.03C144.179 11.2553 144.361 11.4373 144.587 11.576C144.812 11.7147 145.063 11.8273 145.341 11.914C145.635 11.9833 145.93 12.044 146.225 12.096L148.331 12.408C148.816 12.4773 149.327 12.5727 149.865 12.694C150.402 12.8153 150.896 13.0147 151.347 13.292C151.797 13.552 152.17 13.9073 152.465 14.358C152.777 14.8087 152.933 15.398 152.933 16.126C152.933 17.4607 152.413 18.492 151.373 19.22C150.35 19.948 148.981 20.312 147.265 20.312Z" fill="url(#paint0_linear_2_46)"/>
<path d="M2.744 19.428L2.24009 20.2918L2.25099 20.298L2.744 19.428ZM0.17 17.114L-0.463928 16.3406L-1.19143 16.9369L-0.640679 17.6995L0.17 17.114ZM1.756 15.814L2.53538 15.1874L1.90284 14.4006L1.12207 15.0406L1.756 15.814ZM3.992 17.79L3.50634 18.6642L3.51449 18.6686L3.992 17.79ZM9.842 17.53L10.5005 18.2826V18.2826L9.842 17.53ZM10.128 12.928L9.42089 13.6351L9.4271 13.6413L9.43341 13.6474L10.128 12.928ZM7.502 11.862L7.6664 10.8756H7.6664L7.502 11.862ZM5.474 11.524L5.30021 12.5088L5.3096 12.5104L5.474 11.524ZM3.238 10.822L2.77008 11.7059L2.78065 11.7113L3.238 10.822ZM1.808 9.704L1.03006 10.3323L1.03611 10.3398L1.0423 10.3472L1.808 9.704ZM1.028 8.248L0.0676157 8.52682L0.0701737 8.53535L1.028 8.248ZM2.432 2.814L3.04594 3.60335H3.04594L2.432 2.814ZM10.518 2.268L10.0771 3.16557L10.0833 3.16855L10.518 2.268ZM12.936 4.322L13.59 5.07853L14.2666 4.49362L13.7605 3.75616L12.936 4.322ZM11.402 5.648L10.607 6.25467L11.2519 7.0996L12.056 6.40453L11.402 5.648ZM9.582 4.036L9.07682 4.89901V4.89901L9.582 4.036ZM3.992 4.192L3.37236 3.40712L3.37236 3.40712L3.992 4.192ZM3.732 8.534L3.00095 9.21632L3.01271 9.22892L3.02489 9.24111L3.732 8.534ZM6.41 9.626L6.23697 10.6109L6.23921 10.6113L6.41 9.626ZM8.36 9.964L8.53379 8.97921L8.53079 8.97869L8.36 9.964ZM10.596 10.666L11.0533 9.77671H11.0533L10.596 10.666ZM12.052 11.784L11.2863 12.4272L11.2937 12.436L11.3013 12.4446L12.052 11.784ZM12.858 13.24L13.8183 12.9612L12.858 13.24ZM11.428 18.882L10.7762 18.1236L10.7703 18.1287L11.428 18.882ZM6.748 19.312C5.23139 19.312 4.08184 19.0367 3.23701 18.558L2.25099 20.298C3.48616 20.998 5.00595 21.312 6.748 21.312V19.312ZM3.24787 18.5642C2.32317 18.0248 1.57145 17.3465 0.980679 16.5285L-0.640679 17.6995C0.12055 18.7535 1.08484 19.6179 2.24013 20.2918L3.24787 18.5642ZM0.803928 17.8874L2.38993 16.5874L1.12207 15.0406L-0.463928 16.3406L0.803928 17.8874ZM0.976624 16.4406C1.74721 17.3991 2.58727 18.1536 3.50636 18.6642L4.47764 16.9158C3.83673 16.5598 3.18613 15.9969 2.53538 15.1874L0.976624 16.4406ZM3.51449 18.6686C4.48542 19.1963 5.60095 19.44 6.826 19.44V17.44C5.86705 17.44 5.09325 17.2504 4.46951 16.9114L3.51449 18.6686ZM6.826 19.44C8.28273 19.44 9.56006 19.1055 10.5005 18.2826L9.1835 16.7774C8.73727 17.1679 8.00393 17.44 6.826 17.44V19.44ZM10.5005 18.2826C11.4514 17.4505 11.882 16.3037 11.882 14.982H9.882C9.882 15.8443 9.61924 16.3961 9.1835 16.7774L10.5005 18.2826ZM11.882 14.982C11.882 13.9028 11.5691 12.9294 10.8226 12.2086L9.43341 13.6474C9.6922 13.8973 9.882 14.2932 9.882 14.982H11.882ZM10.8351 12.2209C10.1088 11.4946 8.97902 11.0944 7.6664 10.8756L7.3376 12.8484C8.52098 13.0456 9.14184 13.3561 9.42089 13.6351L10.8351 12.2209ZM7.6664 10.8756L5.6384 10.5376L5.3096 12.5104L7.3376 12.8484L7.6664 10.8756ZM5.64779 10.5392C4.83329 10.3955 4.18976 10.187 3.69535 9.93271L2.78065 11.7113C3.49957 12.081 4.34671 12.3405 5.30021 12.5088L5.64779 10.5392ZM3.70589 9.93821C3.21045 9.67592 2.84148 9.37959 2.5737 9.06081L1.0423 10.3472C1.50252 10.8951 2.08688 11.3441 2.77011 11.7058L3.70589 9.93821ZM2.58594 9.07566C2.29792 8.71907 2.1021 8.34824 1.98583 7.96065L0.0701737 8.53535C0.265899 9.18776 0.590078 9.7876 1.03006 10.3323L2.58594 9.07566ZM1.98835 7.96919C1.85924 7.52448 1.794 7.06378 1.794 6.584H-0.206C-0.206 7.24822 -0.115235 7.89686 0.0676538 8.52681L1.98835 7.96919ZM1.794 6.584C1.794 5.15875 2.24781 4.22412 3.04594 3.60335L1.81806 2.02465C0.432192 3.10254 -0.206 4.68125 -0.206 6.584H1.794ZM3.04594 3.60335C3.91095 2.93057 5.1443 2.54 6.852 2.54V0.539999C4.85037 0.539999 3.13705 0.998766 1.81806 2.02465L3.04594 3.60335ZM6.852 2.54C8.20237 2.54 9.26319 2.76574 10.0771 3.16555L10.9589 1.37044C9.79681 0.799591 8.41363 0.539999 6.852 0.539999V2.54ZM10.0833 3.16855C10.9385 3.58141 11.6075 4.1535 12.1115 4.88784L13.7605 3.75616C13.0511 2.7225 12.1082 1.92525 10.9527 1.36745L10.0833 3.16855ZM12.282 3.56546L10.748 4.89146L12.056 6.40453L13.59 5.07853L12.282 3.56546ZM12.197 5.04133C11.6158 4.27982 10.9109 3.65517 10.0872 3.17299L9.07682 4.89901C9.67442 5.24883 10.1829 5.69884 10.607 6.25467L12.197 5.04133ZM10.0872 3.17299C9.17695 2.64017 8.06752 2.412 6.826 2.412V4.412C7.83781 4.412 8.56572 4.59983 9.07682 4.89901L10.0872 3.17299ZM6.826 2.412C5.47168 2.412 4.27323 2.6959 3.37236 3.40712L4.61164 4.97688C5.0281 4.6481 5.71899 4.412 6.826 4.412V2.412ZM3.37236 3.40712C2.41655 4.1617 2.004 5.26667 2.004 6.532H4.004C4.004 5.71733 4.25012 5.2623 4.61164 4.97688L3.37236 3.40712ZM2.004 6.532C2.004 7.56041 2.31757 8.48413 3.00095 9.21632L4.46306 7.85168C4.17576 7.54387 4.004 7.13292 4.004 6.532H2.004ZM3.02489 9.24111C3.75073 9.96694 4.89776 10.3756 6.23697 10.6109L6.58303 8.64108C5.35691 8.42568 4.7186 8.10639 4.43911 7.82689L3.02489 9.24111ZM6.23921 10.6113L8.18921 10.9493L8.53079 8.97869L6.58079 8.64069L6.23921 10.6113ZM8.18622 10.9488C9.00071 11.0925 9.64424 11.301 10.1387 11.5553L11.0533 9.77671C10.3344 9.40698 9.48729 9.14748 8.53379 8.97922L8.18622 10.9488ZM10.1387 11.5553C10.6509 11.8187 11.0233 12.1142 11.2863 12.4272L12.8177 11.1408C12.3527 10.5872 11.7544 10.1373 11.0533 9.77671L10.1387 11.5553ZM11.3013 12.4446C11.5887 12.7712 11.7839 13.1271 11.8977 13.5188L13.8183 12.9612C13.6201 12.2782 13.278 11.6634 12.8027 11.1234L11.3013 12.4446ZM11.8977 13.5188C12.026 13.9608 12.092 14.43 12.092 14.93H14.092C14.092 14.2514 14.002 13.5938 13.8183 12.9612L11.8977 13.5188ZM12.092 14.93C12.092 16.3683 11.6302 17.3897 10.7762 18.1236L12.0798 19.6404C13.4444 18.4677 14.092 16.8544 14.092 14.93H12.092ZM10.7703 18.1287C9.92177 18.8695 8.6302 19.312 6.748 19.312V21.312C8.9218 21.312 10.7502 20.8012 12.0857 19.6353L10.7703 18.1287ZM20.7778 19.142L20.0039 19.7752L20.0096 19.7822L20.0153 19.789L20.7778 19.142ZM20.0758 8.352H21.0758V7.352H20.0758V8.352ZM15.6038 8.352H14.6038V9.352H15.6038V8.352ZM15.6038 6.584V5.584H14.6038V6.584H15.6038ZM19.8678 6.324L19.1607 5.61689L19.8678 6.324ZM20.1538 1.852V0.852H19.1538V1.852H20.1538ZM22.1558 1.852H23.1558V0.852H22.1558V1.852ZM22.1558 6.584H21.1558V7.584H22.1558V6.584ZM28.2658 6.584H29.2658V5.584H28.2658V6.584ZM28.2658 8.352V9.352H29.2658V8.352H28.2658ZM22.1558 8.352V7.352H21.1558V8.352H22.1558ZM22.1558 18.232H21.1558V19.232H22.1558V18.232ZM28.2658 18.232H29.2658V17.232H28.2658V18.232ZM28.2658 20V21H29.2658V20H28.2658ZM23.0398 19C22.1985 19 21.7734 18.7697 21.5404 18.495L20.0153 19.789C20.753 20.6583 21.8358 21 23.0398 21V19ZM21.5518 18.5088C21.2601 18.1522 21.0758 17.6549 21.0758 16.932H19.0758C19.0758 18.0117 19.3596 18.9878 20.0039 19.7752L21.5518 18.5088ZM21.0758 16.932V8.352H19.0758V16.932H21.0758ZM20.0758 7.352H15.6038V9.352H20.0758V7.352ZM16.6038 8.352V6.584H14.6038V8.352H16.6038ZM15.6038 7.584H18.9318V5.584H15.6038V7.584ZM18.9318 7.584C19.4467 7.584 20.1084 7.49768 20.575 7.03111L19.1607 5.61689C19.229 5.54864 19.2777 5.54396 19.2362 5.55548C19.1939 5.56722 19.0992 5.584 18.9318 5.584V7.584ZM20.5749 7.03111C21.0456 6.56049 21.1538 5.90973 21.1538 5.362H19.1538C19.1538 5.52197 19.1363 5.61342 19.1238 5.65553C19.1123 5.69423 19.1134 5.66422 19.1607 5.61689L20.5749 7.03111ZM21.1538 5.362V1.852H19.1538V5.362H21.1538ZM20.1538 2.852H22.1558V0.852H20.1538V2.852ZM21.1558 1.852V6.584H23.1558V1.852H21.1558ZM22.1558 7.584H28.2658V5.584H22.1558V7.584ZM27.2658 6.584V8.352H29.2658V6.584H27.2658ZM28.2658 7.352H22.1558V9.352H28.2658V7.352ZM21.1558 8.352V18.232H23.1558V8.352H21.1558ZM22.1558 19.232H28.2658V17.232H22.1558V19.232ZM27.2658 18.232V20H29.2658V18.232H27.2658ZM28.2658 19H23.0398V21H28.2658V19ZM41.3077 19.376L42.0759 18.7358L41.3077 19.376ZM40.6577 17.816L41.6482 17.6784L41.5284 16.816H40.6577V17.816ZM40.5277 17.816V16.816H39.8365L39.5922 17.4626L40.5277 17.816ZM39.0977 19.662L39.6576 20.4906L39.6624 20.4873L39.0977 19.662ZM33.1437 19.22L33.8022 18.4674L33.1437 19.22ZM33.2477 13.344L32.655 12.5385L32.6477 12.544L33.2477 13.344ZM40.5277 12.33V13.33H41.5277V12.33H40.5277ZM39.6957 8.794L39.0242 9.53499L39.0306 9.54084L39.0372 9.54658L39.6957 8.794ZM35.1197 8.586L35.638 9.4412L35.6473 9.43553L35.6566 9.42966L35.1197 8.586ZM33.7417 10.016L33.1465 10.8196L34.0513 11.4898L34.6099 10.5121L33.7417 10.016ZM32.3377 8.976L31.4433 8.52879L31.0678 9.27978L31.7425 9.77956L32.3377 8.976ZM33.0397 7.962L33.7849 8.62879V8.62879L33.0397 7.962ZM34.1317 7.104L34.6203 7.97651L34.6334 7.96919L34.6462 7.96149L34.1317 7.104ZM35.6137 6.506L35.8562 7.47614L35.8704 7.4726L35.8844 7.46865L35.6137 6.506ZM41.2037 7.468L40.5482 8.22325L40.5552 8.22924L41.2037 7.468ZM42.6077 18.18H41.6077V19.18H42.6077V18.18ZM44.4797 18.18H45.4797V17.18H44.4797V18.18ZM44.4797 20V21H45.4797V20H44.4797ZM38.3177 18.388L38.5873 19.351L38.5996 19.3475L38.6118 19.3438L38.3177 18.388ZM39.4877 17.868L40.0217 18.7135L40.0372 18.7037L40.0524 18.6933L39.4877 17.868ZM40.2417 17.088L39.3884 16.5665L39.384 16.5737L39.3798 16.581L40.2417 17.088ZM40.5277 13.89H41.5277V12.89H40.5277V13.89ZM34.9377 14.41L35.456 15.2652L34.9377 14.41ZM34.8077 18.05L34.2077 18.85L34.2236 18.8619L34.24 18.8732L34.8077 18.05ZM43.0497 19C42.3796 19 42.153 18.8283 42.0759 18.7358L40.5395 20.0162C41.1558 20.7557 42.0904 21 43.0497 21V19ZM42.0759 18.7358C41.8673 18.4854 41.7134 18.1482 41.6482 17.6784L39.6672 17.9536C39.7753 18.7318 40.0548 19.4346 40.5395 20.0162L42.0759 18.7358ZM40.6577 16.816H40.5277V18.816H40.6577V16.816ZM39.5922 17.4626C39.3665 18.0601 39.0148 18.507 38.533 18.8367L39.6624 20.4873C40.4979 19.9156 41.0996 19.1319 41.4632 18.1694L39.5922 17.4626ZM38.5378 18.8334C38.1169 19.1178 37.469 19.312 36.4977 19.312V21.312C37.7104 21.312 38.7958 21.0729 39.6575 20.4906L38.5378 18.8334ZM36.4977 19.312C35.2685 19.312 34.4069 18.9965 33.8022 18.4674L32.4852 19.9726C33.5445 20.8995 34.9188 21.312 36.4977 21.312V19.312ZM33.8022 18.4674C33.2198 17.9578 32.8957 17.2532 32.8957 16.23H30.8957C30.8957 17.7374 31.4036 19.0262 32.4852 19.9726L33.8022 18.4674ZM32.8957 16.23C32.8957 15.2577 33.2278 14.6089 33.8477 14.144L32.6477 12.544C31.4649 13.4311 30.8957 14.7063 30.8957 16.23H32.8957ZM33.8404 14.1494C34.4983 13.6653 35.7065 13.33 37.6677 13.33V11.33C35.5729 11.33 33.8345 11.6707 32.655 12.5386L33.8404 14.1494ZM37.6677 13.33H40.5277V11.33H37.6677V13.33ZM41.5277 12.33V11.004H39.5277V12.33H41.5277ZM41.5277 11.004C41.5277 9.8311 41.1932 8.77554 40.3542 8.04142L39.0372 9.54658C39.3075 9.78312 39.5277 10.2009 39.5277 11.004H41.5277ZM40.3672 8.05301C39.5704 7.33089 38.5088 7.04 37.3297 7.04V9.04C38.1959 9.04 38.7117 9.25177 39.0242 9.53499L40.3672 8.05301ZM37.3297 7.04C36.2993 7.04 35.3601 7.24773 34.5828 7.74234L35.6566 9.42966C36.0233 9.19627 36.5574 9.04 37.3297 9.04V7.04ZM34.6014 7.7308C33.8775 8.16949 33.3005 8.77257 32.8734 9.51986L34.6099 10.5121C34.8762 10.0461 35.2178 9.69584 35.638 9.4412L34.6014 7.7308ZM34.3369 9.21244L32.9329 8.17244L31.7425 9.77956L33.1465 10.8196L34.3369 9.21244ZM33.2321 9.42321C33.3606 9.16625 33.5414 8.90097 33.7849 8.62879L32.2944 7.2952C31.9486 7.68169 31.6614 8.09241 31.4433 8.52879L33.2321 9.42321ZM33.7849 8.62879C33.9975 8.39124 34.2715 8.17185 34.6203 7.97651L33.6431 6.23149C33.1252 6.52149 32.6712 6.8741 32.2944 7.2952L33.7849 8.62879ZM34.6462 7.96149C34.9846 7.75842 35.3849 7.59397 35.8562 7.47614L35.3712 5.53586C34.7331 5.69536 34.1454 5.92958 33.6172 6.24651L34.6462 7.96149ZM35.8844 7.46865C36.3373 7.34128 36.8598 7.272 37.4597 7.272V5.272C36.7075 5.272 35.9994 5.35872 35.3429 5.54335L35.8844 7.46865ZM37.4597 7.272C38.8692 7.272 39.8599 7.6258 40.5482 8.22322L41.8592 6.71278C40.7102 5.71553 39.2048 5.272 37.4597 5.272V7.272ZM40.5552 8.22924C41.2322 8.80593 41.6077 9.61685 41.6077 10.796H43.6077C43.6077 9.13248 43.0472 7.72473 41.8522 6.70676L40.5552 8.22924ZM41.6077 10.796V18.18H43.6077V10.796H41.6077ZM42.6077 19.18H44.4797V17.18H42.6077V19.18ZM43.4797 18.18V20H45.4797V18.18H43.4797ZM44.4797 19H43.0497V21H44.4797V19ZM36.8617 19.57C37.4731 19.57 38.0512 19.5011 38.5873 19.351L38.0481 17.425C37.7175 17.5176 37.325 17.57 36.8617 17.57V19.57ZM38.6118 19.3438C39.1299 19.1844 39.6039 18.9774 40.0217 18.7135L38.9537 17.0225C38.7128 17.1746 38.4069 17.3143 38.0236 17.4322L38.6118 19.3438ZM40.0524 18.6933C40.4828 18.3988 40.8443 18.0358 41.1036 17.595L39.3798 16.581C39.2924 16.7295 39.1512 16.8865 38.923 17.0427L40.0524 18.6933ZM41.095 17.6094C41.3761 17.1494 41.5277 16.6409 41.5277 16.1H39.5277C39.5277 16.2524 39.4886 16.4026 39.3884 16.5665L41.095 17.6094ZM41.5277 16.1V13.89H39.5277V16.1H41.5277ZM40.5277 12.89H37.6677V14.89H40.5277V12.89ZM37.6677 12.89C36.3709 12.89 35.2322 13.0622 34.4194 13.5548L35.456 15.2652C35.7871 15.0645 36.4684 14.89 37.6677 14.89V12.89ZM34.4194 13.5548C33.554 14.0793 33.0797 14.9031 33.0797 15.918H35.0797C35.0797 15.6156 35.1774 15.4341 35.456 15.2652L34.4194 13.5548ZM33.0797 15.918V16.464H35.0797V15.918H33.0797ZM33.0797 16.464C33.0797 17.4208 33.4321 18.2683 34.2077 18.85L35.4077 17.25C35.2126 17.1037 35.0797 16.8939 35.0797 16.464H33.0797ZM34.24 18.8732C34.9662 19.374 35.874 19.57 36.8617 19.57V17.57C36.116 17.57 35.6546 17.4193 35.3754 17.2268L34.24 18.8732ZM51.9575 19.142L51.1836 19.7752L51.1892 19.7822L51.195 19.789L51.9575 19.142ZM51.2555 8.352H52.2555V7.352H51.2555V8.352ZM46.7835 8.352H45.7835V9.352H46.7835V8.352ZM46.7835 6.584V5.584H45.7835V6.584H46.7835ZM51.0475 6.324L50.3404 5.61689H50.3404L51.0475 6.324ZM51.3335 1.852V0.852H50.3335V1.852H51.3335ZM53.3355 1.852H54.3355V0.852H53.3355V1.852ZM53.3355 6.584H52.3355V7.584H53.3355V6.584ZM59.4455 6.584H60.4455V5.584H59.4455V6.584ZM59.4455 8.352V9.352H60.4455V8.352H59.4455ZM53.3355 8.352V7.352H52.3355V8.352H53.3355ZM53.3355 18.232H52.3355V19.232H53.3355V18.232ZM59.4455 18.232H60.4455V17.232H59.4455V18.232ZM59.4455 20V21H60.4455V20H59.4455ZM54.2195 19C53.3782 19 52.9531 18.7697 52.72 18.495L51.195 19.789C51.9327 20.6583 53.0155 21 54.2195 21V19ZM52.7315 18.5088C52.4397 18.1522 52.2555 17.6549 52.2555 16.932H50.2555C50.2555 18.0117 50.5393 18.9878 51.1836 19.7752L52.7315 18.5088ZM52.2555 16.932V8.352H50.2555V16.932H52.2555ZM51.2555 7.352H46.7835V9.352H51.2555V7.352ZM47.7835 8.352V6.584H45.7835V8.352H47.7835ZM46.7835 7.584H50.1115V5.584H46.7835V7.584ZM50.1115 7.584C50.6263 7.584 51.2881 7.49768 51.7546 7.03111L50.3404 5.61689C50.4087 5.54864 50.4574 5.54396 50.4159 5.55548C50.3736 5.56722 50.2789 5.584 50.1115 5.584V7.584ZM51.7546 7.03111C52.2253 6.56049 52.3335 5.90973 52.3335 5.362H50.3335C50.3335 5.52197 50.316 5.61342 50.3035 5.65553C50.292 5.69423 50.2931 5.66422 50.3404 5.61689L51.7546 7.03111ZM52.3335 5.362V1.852H50.3335V5.362H52.3335ZM51.3335 2.852H53.3355V0.852H51.3335V2.852ZM52.3355 1.852V6.584H54.3355V1.852H52.3355ZM53.3355 7.584H59.4455V5.584H53.3355V7.584ZM58.4455 6.584V8.352H60.4455V6.584H58.4455ZM59.4455 7.352H53.3355V9.352H59.4455V7.352ZM52.3355 8.352V18.232H54.3355V8.352H52.3355ZM53.3355 19.232H59.4455V17.232H53.3355V19.232ZM58.4455 18.232V20H60.4455V18.232H58.4455ZM59.4455 19H54.2195V21H59.4455V19ZM68.7174 3.256L67.9863 3.93832L67.9981 3.95092L68.0103 3.96311L68.7174 3.256ZM68.7174 0.941999L69.4245 1.64911L69.4367 1.63692L69.4484 1.62432L68.7174 0.941999ZM71.2654 0.941999L70.5343 1.62432L70.5461 1.63692L70.5583 1.64911L71.2654 0.941999ZM71.2654 3.256L71.9725 3.96311L71.9847 3.95092L71.9964 3.93832L71.2654 3.256ZM64.1154 18.232V17.232H63.1154V18.232H64.1154ZM68.9514 18.232V19.232H69.9514V18.232H68.9514ZM68.9514 8.352H69.9514V7.352H68.9514V8.352ZM64.1154 8.352H63.1154V9.352H64.1154V8.352ZM64.1154 6.584V5.584H63.1154V6.584H64.1154ZM71.0314 6.584H72.0314V5.584H71.0314V6.584ZM71.0314 18.232H70.0314V19.232H71.0314V18.232ZM75.5554 18.232H76.5554V17.232H75.5554V18.232ZM75.5554 20V21H76.5554V20H75.5554ZM64.1154 20H63.1154V21H64.1154V20ZM69.9914 2.62C69.749 2.62 69.5893 2.59511 69.4926 2.56747C69.3979 2.54043 69.396 2.52039 69.4245 2.54889L68.0103 3.96311C68.5409 4.49369 69.307 4.62 69.9914 4.62V2.62ZM69.4484 2.57368C69.3918 2.51299 69.3534 2.44207 69.3534 2.294H67.3534C67.3534 2.9086 67.5576 3.47901 67.9863 3.93832L69.4484 2.57368ZM69.3534 2.294V1.878H67.3534V2.294H69.3534ZM69.3534 1.878C69.3534 1.72958 69.391 1.68257 69.4245 1.64911L68.0103 0.234892C67.5584 0.686762 67.3534 1.26375 67.3534 1.878H69.3534ZM69.4484 1.62432C69.4239 1.65064 69.4247 1.63201 69.5106 1.6057C69.6005 1.57816 69.7536 1.552 69.9914 1.552V-0.448001C69.2926 -0.448001 68.5153 -0.307095 67.9863 0.25968L69.4484 1.62432ZM69.9914 1.552C70.2291 1.552 70.3822 1.57816 70.4722 1.6057C70.5581 1.63201 70.5589 1.65064 70.5343 1.62432L71.9964 0.25968C71.4674 -0.307095 70.6902 -0.448001 69.9914 -0.448001V1.552ZM70.5583 1.64911C70.5917 1.68257 70.6294 1.72958 70.6294 1.878H72.6294C72.6294 1.26375 72.4244 0.686762 71.9725 0.234892L70.5583 1.64911ZM70.6294 1.878V2.294H72.6294V1.878H70.6294ZM70.6294 2.294C70.6294 2.44207 70.591 2.51299 70.5343 2.57368L71.9964 3.93832C72.4251 3.47901 72.6294 2.9086 72.6294 2.294H70.6294ZM70.5583 2.54889C70.5868 2.52039 70.5848 2.54043 70.4902 2.56747C70.3934 2.59511 70.2338 2.62 69.9914 2.62V4.62C70.6757 4.62 71.4419 4.49369 71.9725 3.96311L70.5583 2.54889ZM64.1154 19.232H68.9514V17.232H64.1154V19.232ZM69.9514 18.232V8.352H67.9514V18.232H69.9514ZM68.9514 7.352H64.1154V9.352H68.9514V7.352ZM65.1154 8.352V6.584H63.1154V8.352H65.1154ZM64.1154 7.584H71.0314V5.584H64.1154V7.584ZM70.0314 6.584V18.232H72.0314V6.584H70.0314ZM71.0314 19.232H75.5554V17.232H71.0314V19.232ZM74.5554 18.232V20H76.5554V18.232H74.5554ZM75.5554 19H64.1154V21H75.5554V19ZM65.1154 20V18.232H63.1154V20H65.1154ZM81.2652 19.61L80.8305 20.5106L80.8397 20.515L80.8491 20.5193L81.2652 19.61ZM78.6912 17.686L78.0347 16.9317L77.2714 17.596L77.9447 18.3514L78.6912 17.686ZM80.0952 16.464L80.8207 15.7757L80.1613 15.0807L79.4387 15.7097L80.0952 16.464ZM82.2012 18.024L82.632 17.1215L82.2012 18.024ZM87.5052 18.024L87.9889 18.8993L87.9965 18.895L87.5052 18.024ZM88.3112 15.398L87.4168 15.8452L87.4365 15.8846L87.4596 15.9221L88.3112 15.398ZM87.7912 14.826L88.3153 13.9743V13.9743L87.7912 14.826ZM87.0372 14.514L86.7389 15.4685L86.7666 15.4771L86.7947 15.4841L87.0372 14.514ZM86.1532 14.306L86.3176 13.3196L86.3087 13.3181L86.2998 13.3168L86.1532 14.306ZM84.0472 13.994L83.9007 14.9832L84.0472 13.994ZM82.5132 13.708L82.293 14.6835L82.2995 14.6849L82.5132 13.708ZM81.0312 13.136L80.5071 13.9877L80.5192 13.9951L80.5315 14.0022L81.0312 13.136ZM79.8872 12.044L79.0502 12.5912L79.0575 12.6023L79.065 12.6132L79.8872 12.044ZM79.8352 8.534L78.9596 8.05089L78.9537 8.06178L79.8352 8.534ZM80.9792 7.286L81.5407 8.11347L81.5507 8.10672L81.5605 8.09973L80.9792 7.286ZM82.6952 6.532L82.9257 7.50508L82.9377 7.50223L82.9497 7.49907L82.6952 6.532ZM87.9992 6.844L87.6031 7.76223L87.6096 7.76497L87.9992 6.844ZM90.3132 8.43L90.999 9.15779L91.7293 8.46966L91.0387 7.74174L90.3132 8.43ZM88.9612 9.704L88.1873 10.3372L88.8664 11.1673L89.647 10.4318L88.9612 9.704ZM88.3632 9.132L87.6849 9.8668L87.7141 9.89376L87.7454 9.91832L88.3632 9.132ZM87.5052 8.586L87.0395 9.47092L87.0667 9.48527L87.0949 9.49792L87.5052 8.586ZM86.3352 8.17L86.1104 9.14439L86.3352 8.17ZM82.3312 8.56L81.7943 7.71626L81.7826 7.72395L82.3312 8.56ZM81.6812 11.03L80.7868 11.4772L80.8065 11.5166L80.8296 11.5541L81.6812 11.03ZM82.2272 11.576L81.7031 12.4277H81.7031L82.2272 11.576ZM82.9812 11.914L82.6829 12.8685L82.7172 12.8792L82.7522 12.8874L82.9812 11.914ZM83.8652 12.096L83.6914 13.0808L83.705 13.0832L83.7187 13.0852L83.8652 12.096ZM85.9712 12.408L85.8247 13.3972L85.8298 13.3979L85.9712 12.408ZM88.9872 13.292L88.4631 14.1437L88.4752 14.1511L88.4875 14.1582L88.9872 13.292ZM90.1052 14.358L89.2682 14.9052L89.2755 14.9163L89.283 14.9272L90.1052 14.358ZM89.0132 19.22L88.4397 18.4007L88.4333 18.4053L89.0132 19.22ZM84.9052 19.312C83.6102 19.312 82.5452 19.096 81.6813 18.7007L80.8491 20.5193C82.0306 21.06 83.3923 21.312 84.9052 21.312V19.312ZM81.7 18.7094C80.8076 18.2786 80.057 17.7154 79.4377 17.0206L77.9447 18.3514C78.7468 19.2512 79.7122 19.9707 80.8305 20.5106L81.7 18.7094ZM79.3477 18.4403L80.7517 17.2183L79.4387 15.7097L78.0347 16.9317L79.3477 18.4403ZM79.3698 17.1523C80.0867 17.908 80.8865 18.5046 81.7705 18.9265L82.632 17.1215C81.9906 16.8154 81.3864 16.372 80.8207 15.7757L79.3698 17.1523ZM81.7705 18.9265C82.6991 19.3697 83.7727 19.57 84.9572 19.57V17.57C83.9924 17.57 83.2287 17.4063 82.632 17.1215L81.7705 18.9265ZM84.9572 19.57C86.1049 19.57 87.1363 19.3704 87.9889 18.8992L87.0215 17.1488C86.5568 17.4056 85.8895 17.57 84.9572 17.57V19.57ZM87.9965 18.895C88.9973 18.3304 89.5192 17.4019 89.5192 16.256H87.5192C87.5192 16.7047 87.3651 16.9549 87.0139 17.153L87.9965 18.895ZM89.5192 16.256C89.5192 15.7804 89.4243 15.2987 89.1629 14.8739L87.4596 15.9221C87.4755 15.948 87.5192 16.0382 87.5192 16.256H89.5192ZM89.2056 14.9508C89.0032 14.5459 88.7036 14.2133 88.3153 13.9743L87.2671 15.6777C87.3295 15.7161 87.3766 15.7648 87.4168 15.8452L89.2056 14.9508ZM88.3153 13.9743C87.996 13.7778 87.6485 13.636 87.2798 13.5439L86.7947 15.4841C86.9806 15.5306 87.1358 15.5968 87.2671 15.6777L88.3153 13.9743ZM87.3355 13.5595C87.0107 13.458 86.671 13.3785 86.3176 13.3196L85.9888 15.2924C86.2595 15.3375 86.5091 15.3967 86.7389 15.4685L87.3355 13.5595ZM86.2998 13.3168L84.1938 13.0048L83.9007 14.9832L86.0067 15.2952L86.2998 13.3168ZM84.1938 13.0048C83.7522 12.9394 83.2636 12.8485 82.7269 12.7311L82.2995 14.6849C82.8722 14.8102 83.4062 14.91 83.9007 14.9832L84.1938 13.0048ZM82.7335 12.7326C82.2885 12.6321 81.8895 12.4767 81.5309 12.2698L80.5315 14.0022C81.0743 14.3153 81.6633 14.5413 82.293 14.6834L82.7335 12.7326ZM81.5553 12.2843C81.2267 12.0821 80.9455 11.8159 80.7094 11.4748L79.065 12.6132C79.4529 13.1735 79.9344 13.6352 80.5071 13.9877L81.5553 12.2843ZM80.7242 11.4967C80.5673 11.2568 80.4452 10.8762 80.4452 10.276H78.4452C78.4452 11.1318 78.6178 11.9299 79.0502 12.5912L80.7242 11.4967ZM80.4452 10.276C80.4452 9.7277 80.5503 9.31682 80.7167 9.00622L78.9537 8.06178C78.6001 8.72185 78.4452 9.4723 78.4452 10.276H80.4452ZM80.7108 9.01708C80.9103 8.65541 81.1828 8.35634 81.5407 8.11347L80.4177 6.45852C79.805 6.87433 79.3148 7.40726 78.9596 8.05092L80.7108 9.01708ZM81.5605 8.09973C81.927 7.8379 82.3762 7.63521 82.9257 7.50508L82.4648 5.55892C81.6969 5.74079 81.0021 6.04076 80.398 6.47227L81.5605 8.09973ZM82.9497 7.49907C83.5143 7.3505 84.1469 7.272 84.8532 7.272V5.272C83.9995 5.272 83.1935 5.36684 82.4407 5.56493L82.9497 7.49907ZM84.8532 7.272C85.9646 7.272 86.8722 7.44692 87.6031 7.76221L88.3953 5.92579C87.3582 5.47842 86.1685 5.272 84.8532 5.272V7.272ZM87.6096 7.76497C88.3906 8.09542 89.0459 8.54711 89.5878 9.11826L91.0387 7.74174C90.2979 6.96089 89.4105 6.35525 88.3889 5.92303L87.6096 7.76497ZM89.6274 7.70221L88.2754 8.97621L89.647 10.4318L90.999 9.15779L89.6274 7.70221ZM89.7352 9.07076C89.523 8.81142 89.2674 8.57072 88.981 8.34568L87.7454 9.91832C87.9443 10.0746 88.0874 10.2152 88.1873 10.3372L89.7352 9.07076ZM89.0415 8.3972C88.7206 8.10101 88.3379 7.86413 87.9156 7.67408L87.0949 9.49792C87.3658 9.61987 87.5551 9.74699 87.6849 9.8668L89.0415 8.3972ZM87.971 7.70108C87.5497 7.47938 87.0752 7.31448 86.5601 7.19561L86.1104 9.14439C86.4966 9.23352 86.802 9.34595 87.0395 9.47092L87.971 7.70108ZM86.5601 7.19561C86.0188 7.0707 85.4207 7.014 84.7752 7.014V9.014C85.3084 9.014 85.7503 9.0613 86.1104 9.14439L86.5601 7.19561ZM84.7752 7.014C83.6256 7.014 82.5931 7.20804 81.7943 7.71634L82.8681 9.40366C83.2133 9.18396 83.8102 9.014 84.7752 9.014V7.014ZM81.7826 7.72395C80.9313 8.28258 80.4992 9.13396 80.4992 10.146H82.4992C82.4992 9.77137 82.6218 9.56541 82.8799 9.39605L81.7826 7.72395ZM80.4992 10.146C80.4992 10.6061 80.5795 11.0626 80.7868 11.4772L82.5756 10.5828C82.5403 10.5121 82.4992 10.3792 82.4992 10.146H80.4992ZM80.8296 11.5541C81.0503 11.9128 81.3445 12.2069 81.7031 12.4277L82.7513 10.7243C82.6593 10.6677 82.5895 10.5979 82.5329 10.5059L80.8296 11.5541ZM81.7031 12.4277C82.0057 12.6139 82.334 12.7594 82.6829 12.8685L83.2795 10.9595C83.0737 10.8952 82.8994 10.8155 82.7513 10.7243L81.7031 12.4277ZM82.7522 12.8874C83.0649 12.961 83.378 13.0255 83.6914 13.0808L84.039 11.1112C83.7631 11.0625 83.4868 11.0057 83.2103 10.9406L82.7522 12.8874ZM83.7187 13.0852L85.8247 13.3972L86.1178 11.4188L84.0118 11.1068L83.7187 13.0852ZM85.8298 13.3979C86.2857 13.4631 86.7706 13.5533 87.285 13.6694L87.7255 11.7186C87.1652 11.592 86.6274 11.4916 86.1126 11.4181L85.8298 13.3979ZM87.285 13.6694C87.7193 13.7675 88.11 13.9264 88.4631 14.1437L89.5113 12.4403C88.9631 12.103 88.3658 11.8631 87.7255 11.7186L87.285 13.6694ZM88.4875 14.1582C88.7975 14.337 89.0563 14.5811 89.2682 14.9052L90.9422 13.8108C90.5648 13.2335 90.0783 12.767 89.4869 12.4258L88.4875 14.1582ZM89.283 14.9272C89.4467 15.1637 89.5732 15.5356 89.5732 16.126H91.5732C91.5732 15.2604 91.3877 14.4537 90.9274 13.7888L89.283 14.9272ZM89.5732 16.126C89.5732 17.1542 89.1966 17.871 88.4398 18.4008L89.5867 20.0392C90.9099 19.113 91.5732 17.7671 91.5732 16.126H89.5732ZM88.4333 18.4053C87.632 18.9757 86.488 19.312 84.9052 19.312V21.312C86.7545 21.312 88.3491 20.9203 89.5931 20.0347L88.4333 18.4053ZM98.7271 19.142L97.9531 19.7752L97.9588 19.7822L97.9646 19.789L98.7271 19.142ZM98.0251 8.352H99.0251V7.352H98.0251V8.352ZM93.5531 8.352H92.5531V9.352H93.5531V8.352ZM93.5531 6.584V5.584H92.5531V6.584H93.5531ZM97.8171 6.324L97.11 5.61689L97.8171 6.324ZM98.1031 1.852V0.852H97.1031V1.852H98.1031ZM100.105 1.852H101.105V0.852H100.105V1.852ZM100.105 6.584H99.1051V7.584H100.105V6.584ZM106.215 6.584H107.215V5.584H106.215V6.584ZM106.215 8.352V9.352H107.215V8.352H106.215ZM100.105 8.352V7.352H99.1051V8.352H100.105ZM100.105 18.232H99.1051V19.232H100.105V18.232ZM106.215 18.232H107.215V17.232H106.215V18.232ZM106.215 20V21H107.215V20H106.215ZM100.989 19C100.148 19 99.7226 18.7697 99.4896 18.495L97.9646 19.789C98.7022 20.6583 99.785 21 100.989 21V19ZM99.501 18.5088C99.2093 18.1522 99.0251 17.6549 99.0251 16.932H97.0251C97.0251 18.0117 97.3089 18.9878 97.9531 19.7752L99.501 18.5088ZM99.0251 16.932V8.352H97.0251V16.932H99.0251ZM98.0251 7.352H93.5531V9.352H98.0251V7.352ZM94.5531 8.352V6.584H92.5531V8.352H94.5531ZM93.5531 7.584H96.8811V5.584H93.5531V7.584ZM96.8811 7.584C97.3959 7.584 98.0576 7.49768 98.5242 7.03111L97.11 5.61689C97.1782 5.54864 97.2269 5.54396 97.1854 5.55548C97.1431 5.56722 97.0484 5.584 96.8811 5.584V7.584ZM98.5242 7.03111C98.9948 6.56049 99.1031 5.90973 99.1031 5.362H97.1031C97.1031 5.52197 97.0855 5.61342 97.073 5.65553C97.0615 5.69423 97.0626 5.66422 97.11 5.61689L98.5242 7.03111ZM99.1031 5.362V1.852H97.1031V5.362H99.1031ZM98.1031 2.852H100.105V0.852H98.1031V2.852ZM99.1051 1.852V6.584H101.105V1.852H99.1051ZM100.105 7.584H106.215V5.584H100.105V7.584ZM105.215 6.584V8.352H107.215V6.584H105.215ZM106.215 7.352H100.105V9.352H106.215V7.352ZM99.1051 8.352V18.232H101.105V8.352H99.1051ZM100.105 19.232H106.215V17.232H100.105V19.232ZM105.215 18.232V20H107.215V18.232H105.215ZM106.215 19H100.989V21H106.215V19ZM115.487 3.256L114.756 3.93832L114.768 3.95092L114.78 3.96311L115.487 3.256ZM115.487 0.941999L116.194 1.64911L116.206 1.63692L116.218 1.62432L115.487 0.941999ZM118.035 0.941999L117.304 1.62432L117.316 1.63692L117.328 1.64911L118.035 0.941999ZM118.035 3.256L118.742 3.96311L118.754 3.95092L118.766 3.93832L118.035 3.256ZM110.885 18.232V17.232H109.885V18.232H110.885ZM115.721 18.232V19.232H116.721V18.232H115.721ZM115.721 8.352H116.721V7.352H115.721V8.352ZM110.885 8.352H109.885V9.352H110.885V8.352ZM110.885 6.584V5.584H109.885V6.584H110.885ZM117.801 6.584H118.801V5.584H117.801V6.584ZM117.801 18.232H116.801V19.232H117.801V18.232ZM122.325 18.232H123.325V17.232H122.325V18.232ZM122.325 20V21H123.325V20H122.325ZM110.885 20H109.885V21H110.885V20ZM116.761 2.62C116.518 2.62 116.359 2.59511 116.262 2.56747C116.167 2.54043 116.166 2.52039 116.194 2.54889L114.78 3.96311C115.31 4.49369 116.077 4.62 116.761 4.62V2.62ZM116.218 2.57368C116.161 2.51299 116.123 2.44207 116.123 2.294H114.123C114.123 2.9086 114.327 3.47901 114.756 3.93832L116.218 2.57368ZM116.123 2.294V1.878H114.123V2.294H116.123ZM116.123 1.878C116.123 1.72958 116.161 1.68257 116.194 1.64911L114.78 0.234892C114.328 0.686762 114.123 1.26375 114.123 1.878H116.123ZM116.218 1.62432C116.193 1.65064 116.194 1.63201 116.28 1.6057C116.37 1.57816 116.523 1.552 116.761 1.552V-0.448001C116.062 -0.448001 115.285 -0.307095 114.756 0.25968L116.218 1.62432ZM116.761 1.552C116.999 1.552 117.152 1.57816 117.242 1.6057C117.328 1.63201 117.328 1.65064 117.304 1.62432L118.766 0.25968C118.237 -0.307095 117.46 -0.448001 116.761 -0.448001V1.552ZM117.328 1.64911C117.361 1.68257 117.399 1.72958 117.399 1.878H119.399C119.399 1.26375 119.194 0.686762 118.742 0.234892L117.328 1.64911ZM117.399 1.878V2.294H119.399V1.878H117.399ZM117.399 2.294C117.399 2.44207 117.36 2.51299 117.304 2.57368L118.766 3.93832C119.195 3.47901 119.399 2.9086 119.399 2.294H117.399ZM117.328 2.54889C117.356 2.52039 117.354 2.54043 117.26 2.56747C117.163 2.59511 117.003 2.62 116.761 2.62V4.62C117.445 4.62 118.211 4.49369 118.742 3.96311L117.328 2.54889ZM110.885 19.232H115.721V17.232H110.885V19.232ZM116.721 18.232V8.352H114.721V18.232H116.721ZM115.721 7.352H110.885V9.352H115.721V7.352ZM111.885 8.352V6.584H109.885V8.352H111.885ZM110.885 7.584H117.801V5.584H110.885V7.584ZM116.801 6.584V18.232H118.801V6.584H116.801ZM117.801 19.232H122.325V17.232H117.801V19.232ZM121.325 18.232V20H123.325V18.232H121.325ZM122.325 19H110.885V21H122.325V19ZM111.885 20V18.232H109.885V20H111.885ZM129.387 19.818L128.965 20.7247L128.978 20.7306L128.99 20.7361L129.387 19.818ZM127.489 18.388L128.248 17.7372L127.489 18.388ZM126.293 16.178L125.335 16.4653L125.338 16.4741L125.34 16.4828L126.293 16.178ZM126.319 10.406L125.366 10.1012V10.1012L126.319 10.406ZM127.515 8.196L128.274 8.84685L128.283 8.83618L127.515 8.196ZM129.413 6.766L129.009 5.85131L129.413 6.766ZM135.133 7.13L135.707 6.31159V6.31159L135.133 7.13ZM136.927 9.366L137.396 10.2491L138.199 9.82249L137.85 8.98262L136.927 9.366ZM135.263 10.25L134.319 10.5804L134.704 11.6794L135.732 11.1331L135.263 10.25ZM134.041 8.638L133.474 9.46204L133.48 9.46609L133.486 9.47005L134.041 8.638ZM130.323 8.378L130.7 9.30409L130.708 9.30069L130.717 9.29714L130.323 8.378ZM129.127 9.21L128.385 8.53909L129.127 9.21ZM128.373 10.51L127.427 10.184L127.422 10.1987L127.418 10.2136L128.373 10.51ZM128.373 16.074L127.418 16.3704L127.422 16.3853L127.427 16.4L128.373 16.074ZM129.127 17.374L128.385 18.0449V18.0449L129.127 17.374ZM130.349 18.232L129.955 19.1511L129.969 19.1572L129.983 19.1628L130.349 18.232ZM134.249 17.894L134.825 18.711L134.249 17.894ZM135.653 16.178L136.217 15.3527L135.253 14.6925L134.75 15.7481L135.653 16.178ZM137.135 17.192L138.049 17.5965L138.386 16.8362L137.699 16.3667L137.135 17.192ZM135.263 19.428L134.693 18.6064L134.685 18.612L135.263 19.428ZM131.987 19.312C131.13 19.312 130.401 19.1669 129.783 18.8999L128.99 20.7361C129.897 21.1278 130.902 21.312 131.987 21.312V19.312ZM129.808 18.9113C129.189 18.6231 128.672 18.2323 128.248 17.7372L126.729 19.0388C127.345 19.7571 128.094 20.3196 128.965 20.7247L129.808 18.9113ZM128.248 17.7372C127.826 17.245 127.487 16.6304 127.245 15.8732L125.34 16.4828C125.653 17.459 126.111 18.3177 126.729 19.0388L128.248 17.7372ZM127.251 15.8907C127.023 15.1314 126.903 14.268 126.903 13.292H124.903C124.903 14.4307 125.043 15.4913 125.335 16.4653L127.251 15.8907ZM126.903 13.292C126.903 12.3217 127.03 11.4645 127.271 10.7108L125.366 10.1012C125.053 11.0809 124.903 12.1476 124.903 13.292H126.903ZM127.271 10.7108C127.513 9.95363 127.852 9.33905 128.274 8.84679L126.755 7.54521C126.137 8.26628 125.679 9.12504 125.366 10.1012L127.271 10.7108ZM128.283 8.83618C128.704 8.33089 129.212 7.94798 129.817 7.68069L129.009 5.85131C128.123 6.24269 127.365 6.81311 126.747 7.55581L128.283 8.83618ZM129.817 7.68069C130.415 7.41636 131.123 7.272 131.961 7.272V5.272C130.892 5.272 129.901 5.45698 129.009 5.85131L129.817 7.68069ZM131.961 7.272C133.118 7.272 133.957 7.52602 134.558 7.94841L135.707 6.31159C134.68 5.58998 133.404 5.272 131.961 5.272V7.272ZM134.558 7.94841C135.218 8.41152 135.695 9.00602 136.003 9.74938L137.85 8.98262C137.396 7.88864 136.677 6.99248 135.707 6.31159L134.558 7.94841ZM136.458 8.48288L134.794 9.36688L135.732 11.1331L137.396 10.2491L136.458 8.48288ZM136.207 9.91965C135.897 9.03621 135.361 8.31631 134.595 7.80595L133.486 9.47005C133.865 9.72236 134.143 10.0771 134.319 10.5804L136.207 9.91965ZM134.607 7.81396C133.85 7.29347 132.947 7.066 131.961 7.066V9.066C132.639 9.066 133.122 9.21987 133.474 9.46204L134.607 7.81396ZM131.961 7.066C131.239 7.066 130.556 7.19014 129.929 7.45885L130.717 9.29714C131.06 9.14985 131.469 9.066 131.961 9.066V7.066ZM129.945 7.45191C129.343 7.69749 128.818 8.06043 128.385 8.53909L129.868 9.88091C130.094 9.63157 130.367 9.43984 130.7 9.30409L129.945 7.45191ZM128.385 8.53909C127.958 9.01121 127.641 9.56451 127.427 10.184L129.318 10.836C129.451 10.4502 129.637 10.1368 129.868 9.88091L128.385 8.53909ZM127.418 10.2136C127.229 10.823 127.139 11.47 127.139 12.148H129.139C129.139 11.6473 129.205 11.2024 129.328 10.8064L127.418 10.2136ZM127.139 12.148V14.436H129.139V12.148H127.139ZM127.139 14.436C127.139 15.114 127.229 15.761 127.418 16.3704L129.328 15.7776C129.205 15.3816 129.139 14.9367 129.139 14.436H127.139ZM127.427 16.4C127.641 17.0195 127.958 17.5728 128.385 18.0449L129.868 16.7031C129.637 16.4472 129.451 16.1338 129.318 15.748L127.427 16.4ZM128.385 18.0449C128.818 18.5236 129.347 18.8908 129.955 19.1511L130.743 17.3129C130.38 17.1572 130.094 16.9524 129.868 16.7031L128.385 18.0449ZM129.983 19.1628C130.605 19.4072 131.288 19.518 132.013 19.518V17.518C131.49 17.518 131.063 17.4381 130.714 17.3012L129.983 19.1628ZM132.013 19.518C133.069 19.518 134.029 19.2729 134.825 18.711L133.672 17.077C133.289 17.3471 132.76 17.518 132.013 17.518V19.518ZM134.825 18.711C135.571 18.1848 136.144 17.4722 136.556 16.6079L134.75 15.7481C134.468 16.3398 134.105 16.7712 133.672 17.077L134.825 18.711ZM135.088 17.0033L136.57 18.0173L137.699 16.3667L136.217 15.3527L135.088 17.0033ZM136.22 16.7875C135.9 17.5124 135.399 18.1165 134.693 18.6064L135.833 20.2496C136.825 19.5609 137.573 18.6743 138.049 17.5965L136.22 16.7875ZM134.685 18.612C134.069 19.0481 133.198 19.312 131.987 19.312V21.312C133.479 21.312 134.792 20.9866 135.841 20.244L134.685 18.612ZM143.625 19.61L143.19 20.5106L143.199 20.515L143.208 20.5193L143.625 19.61ZM141.051 17.686L140.394 16.9317L139.631 17.596L140.304 18.3514L141.051 17.686ZM142.455 16.464L143.18 15.7757L142.521 15.0807L141.798 15.7097L142.455 16.464ZM144.561 18.024L144.991 17.1215L144.561 18.024ZM149.865 18.024L150.348 18.8993L150.356 18.895L149.865 18.024ZM150.671 15.398L149.776 15.8452L149.796 15.8846L149.819 15.9221L150.671 15.398ZM150.151 14.826L150.675 13.9743V13.9743L150.151 14.826ZM149.397 14.514L149.098 15.4685L149.126 15.4771L149.154 15.4841L149.397 14.514ZM148.513 14.306L148.677 13.3196L148.668 13.3181L148.659 13.3168L148.513 14.306ZM146.407 13.994L146.26 14.9832L146.407 13.994ZM144.873 13.708L144.652 14.6835L144.659 14.6849L144.873 13.708ZM143.391 13.136L142.867 13.9877L142.879 13.9951L142.891 14.0022L143.391 13.136ZM142.247 12.044L141.41 12.5912L141.417 12.6023L141.424 12.6132L142.247 12.044ZM142.195 8.534L141.319 8.05089L141.313 8.06178L142.195 8.534ZM143.339 7.286L143.9 8.11347L143.91 8.10672L143.92 8.09973L143.339 7.286ZM145.055 6.532L145.285 7.50508L145.297 7.50223L145.309 7.49907L145.055 6.532ZM150.359 6.844L149.962 7.76223L149.969 7.76497L150.359 6.844ZM152.673 8.43L153.358 9.15779L154.089 8.46966L153.398 7.74174L152.673 8.43ZM151.321 9.704L150.547 10.3372L151.226 11.1673L152.006 10.4318L151.321 9.704ZM150.723 9.132L150.044 9.8668L150.074 9.89376L150.105 9.91832L150.723 9.132ZM149.865 8.586L149.399 9.47092L149.426 9.48527L149.454 9.49792L149.865 8.586ZM148.695 8.17L148.47 9.14439L148.695 8.17ZM144.691 8.56L144.154 7.71626L144.142 7.72395L144.691 8.56ZM144.041 11.03L143.146 11.4772L143.166 11.5166L143.189 11.5541L144.041 11.03ZM144.587 11.576L144.062 12.4277L144.587 11.576ZM145.341 11.914L145.042 12.8685L145.077 12.8792L145.112 12.8874L145.341 11.914ZM146.225 12.096L146.051 13.0808L146.064 13.0832L146.078 13.0852L146.225 12.096ZM148.331 12.408L148.184 13.3972L148.189 13.3979L148.331 12.408ZM151.347 13.292L150.822 14.1437L150.835 14.1511L150.847 14.1582L151.347 13.292ZM152.465 14.358L151.628 14.9052L151.635 14.9163L151.642 14.9272L152.465 14.358ZM151.373 19.22L150.799 18.4007L150.793 18.4053L151.373 19.22ZM147.265 19.312C145.97 19.312 144.905 19.096 144.041 18.7007L143.208 20.5193C144.39 21.06 145.752 21.312 147.265 21.312V19.312ZM144.059 18.7094C143.167 18.2786 142.416 17.7154 141.797 17.0206L140.304 18.3514C141.106 19.2512 142.072 19.9707 143.19 20.5106L144.059 18.7094ZM141.707 18.4403L143.111 17.2183L141.798 15.7097L140.394 16.9317L141.707 18.4403ZM141.729 17.1523C142.446 17.908 143.246 18.5046 144.13 18.9265L144.991 17.1215C144.35 16.8154 143.746 16.372 143.18 15.7757L141.729 17.1523ZM144.13 18.9265C145.058 19.3697 146.132 19.57 147.317 19.57V17.57C146.352 17.57 145.588 17.4063 144.991 17.1215L144.13 18.9265ZM147.317 19.57C148.464 19.57 149.496 19.3704 150.348 18.8992L149.381 17.1488C148.916 17.4056 148.249 17.57 147.317 17.57V19.57ZM150.356 18.895C151.357 18.3304 151.879 17.4019 151.879 16.256H149.879C149.879 16.7047 149.724 16.9549 149.373 17.153L150.356 18.895ZM151.879 16.256C151.879 15.7804 151.784 15.2987 151.522 14.8739L149.819 15.9221C149.835 15.948 149.879 16.0382 149.879 16.256H151.879ZM151.565 14.9508C151.363 14.5459 151.063 14.2133 150.675 13.9743L149.626 15.6777C149.689 15.7161 149.736 15.7648 149.776 15.8452L151.565 14.9508ZM150.675 13.9743C150.355 13.7778 150.008 13.636 149.639 13.5439L149.154 15.4841C149.34 15.5306 149.495 15.5968 149.626 15.6777L150.675 13.9743ZM149.695 13.5595C149.37 13.458 149.03 13.3785 148.677 13.3196L148.348 15.2924C148.619 15.3375 148.868 15.3967 149.098 15.4685L149.695 13.5595ZM148.659 13.3168L146.553 13.0048L146.26 14.9832L148.366 15.2952L148.659 13.3168ZM146.553 13.0048C146.112 12.9394 145.623 12.8485 145.086 12.7311L144.659 14.6849C145.232 14.8102 145.766 14.91 146.26 14.9832L146.553 13.0048ZM145.093 12.7326C144.648 12.6321 144.249 12.4767 143.89 12.2698L142.891 14.0022C143.434 14.3153 144.023 14.5413 144.652 14.6834L145.093 12.7326ZM143.915 12.2843C143.586 12.0821 143.305 11.8159 143.069 11.4748L141.424 12.6132C141.812 13.1735 142.294 13.6352 142.867 13.9877L143.915 12.2843ZM143.084 11.4967C142.927 11.2568 142.805 10.8762 142.805 10.276H140.805C140.805 11.1318 140.977 11.9299 141.41 12.5912L143.084 11.4967ZM142.805 10.276C142.805 9.7277 142.91 9.31682 143.076 9.00622L141.313 8.06178C140.96 8.72185 140.805 9.4723 140.805 10.276H142.805ZM143.07 9.01708C143.27 8.65541 143.542 8.35634 143.9 8.11347L142.777 6.45852C142.164 6.87433 141.674 7.40726 141.319 8.05092L143.07 9.01708ZM143.92 8.09973C144.286 7.8379 144.736 7.63521 145.285 7.50508L144.824 5.55892C144.056 5.74079 143.361 6.04076 142.757 6.47227L143.92 8.09973ZM145.309 7.49907C145.874 7.3505 146.506 7.272 147.213 7.272V5.272C146.359 5.272 145.553 5.36684 144.8 5.56493L145.309 7.49907ZM147.213 7.272C148.324 7.272 149.232 7.44692 149.963 7.76221L150.755 5.92579C149.718 5.47842 148.528 5.272 147.213 5.272V7.272ZM149.969 7.76497C150.75 8.09542 151.405 8.54711 151.947 9.11826L153.398 7.74174C152.657 6.96089 151.77 6.35525 150.748 5.92303L149.969 7.76497ZM151.987 7.70221L150.635 8.97621L152.006 10.4318L153.358 9.15779L151.987 7.70221ZM152.095 9.07076C151.882 8.81142 151.627 8.57072 151.34 8.34568L150.105 9.91832C150.304 10.0746 150.447 10.2152 150.547 10.3372L152.095 9.07076ZM151.401 8.3972C151.08 8.10101 150.697 7.86413 150.275 7.67408L149.454 9.49792C149.725 9.61987 149.915 9.74699 150.044 9.8668L151.401 8.3972ZM150.33 7.70108C149.909 7.47938 149.435 7.31448 148.919 7.19561L148.47 9.14439C148.856 9.23352 149.161 9.34595 149.399 9.47092L150.33 7.70108ZM148.919 7.19561C148.378 7.0707 147.78 7.014 147.135 7.014V9.014C147.668 9.014 148.11 9.0613 148.47 9.14439L148.919 7.19561ZM147.135 7.014C145.985 7.014 144.952 7.20804 144.154 7.71634L145.227 9.40366C145.573 9.18396 146.17 9.014 147.135 9.014V7.014ZM144.142 7.72395C143.291 8.28258 142.859 9.13396 142.859 10.146H144.859C144.859 9.77137 144.981 9.56541 145.239 9.39605L144.142 7.72395ZM142.859 10.146C142.859 10.6061 142.939 11.0626 143.146 11.4772L144.935 10.5828C144.9 10.5121 144.859 10.3792 144.859 10.146H142.859ZM143.189 11.5541C143.41 11.9128 143.704 12.2069 144.062 12.4277L145.111 10.7243C145.019 10.6677 144.949 10.5979 144.892 10.5059L143.189 11.5541ZM144.062 12.4277C144.365 12.6139 144.693 12.7594 145.042 12.8685L145.639 10.9595C145.433 10.8952 145.259 10.8155 145.111 10.7243L144.062 12.4277ZM145.112 12.8874C145.424 12.961 145.737 13.0255 146.051 13.0808L146.398 11.1112C146.122 11.0625 145.846 11.0057 145.57 10.9406L145.112 12.8874ZM146.078 13.0852L148.184 13.3972L148.477 11.4188L146.371 11.1068L146.078 13.0852ZM148.189 13.3979C148.645 13.4631 149.13 13.5533 149.644 13.6694L150.085 11.7186C149.525 11.592 148.987 11.4916 148.472 11.4181L148.189 13.3979ZM149.644 13.6694C150.079 13.7675 150.469 13.9264 150.822 14.1437L151.871 12.4403C151.322 12.103 150.725 11.8631 150.085 11.7186L149.644 13.6694ZM150.847 14.1582C151.157 14.337 151.416 14.5811 151.628 14.9052L153.302 13.8108C152.924 13.2335 152.438 12.767 151.846 12.4258L150.847 14.1582ZM151.642 14.9272C151.806 15.1637 151.933 15.5356 151.933 16.126H153.933C153.933 15.2604 153.747 14.4537 153.287 13.7888L151.642 14.9272ZM151.933 16.126C151.933 17.1542 151.556 17.871 150.799 18.4008L151.946 20.0392C153.269 19.113 153.933 17.7671 153.933 16.126H151.933ZM150.793 18.4053C149.991 18.9757 148.847 19.312 147.265 19.312V21.312C149.114 21.312 150.708 20.9203 151.953 20.0347L150.793 18.4053Z" fill="black" mask="url(#path-1-outside-1_2_46)"/>
<defs>
<linearGradient id="paint0_linear_2_46" x1="-25.9537" y1="-7" x2="295.5" y2="72.5579" gradientUnits="userSpaceOnUse">
<stop stop-color="white"/>
<stop offset="0.085" stop-color="#FF76D9"/>
<stop offset="1" stop-color="#FDD33E"/>
</linearGradient>
</defs>
</svg>
