<svg width="327" height="37" viewBox="0 0 327 37" fill="none" xmlns="http://www.w3.org/2000/svg">
<mask id="path-1-outside-1_2_11" maskUnits="userSpaceOnUse" x="-1" y="-1" width="329" height="39" fill="black">
<rect fill="white" x="-1" y="-1" width="329" height="39"/>
<path d="M16.62 21.735H4.38V36H0.6V4.59H4.38V18.45H16.62V4.59H20.4V36H16.62V21.735ZM38.9224 7.65C37.8724 7.65 37.1374 7.44 36.7174 7.02C36.2974 6.57 36.0874 6.015 36.0874 5.355V4.635C36.0874 3.975 36.2974 3.435 36.7174 3.015C37.1374 2.565 37.8724 2.34 38.9224 2.34C39.9724 2.34 40.7074 2.565 41.1274 3.015C41.5474 3.435 41.7574 3.975 41.7574 4.635V5.355C41.7574 6.015 41.5474 6.57 41.1274 7.02C40.7074 7.44 39.9724 7.65 38.9224 7.65ZM28.7524 32.94H37.1224V15.84H28.7524V12.78H40.7224V32.94H48.5524V36H28.7524V32.94ZM62.1698 36L53.8448 12.78H57.4898L60.8198 22.5L64.4198 32.985H64.5998L68.1998 22.5L71.5298 12.78H75.0848L66.7598 36H62.1698ZM91.8523 36.54C90.1723 36.54 88.6573 36.255 87.3073 35.685C85.9873 35.115 84.8473 34.305 83.8873 33.255C82.9573 32.175 82.2373 30.9 81.7273 29.43C81.2173 27.93 80.9623 26.265 80.9623 24.435C80.9623 22.575 81.2173 20.895 81.7273 19.395C82.2673 17.895 83.0023 16.62 83.9323 15.57C84.8623 14.49 85.9723 13.665 87.2623 13.095C88.5823 12.525 90.0373 12.24 91.6273 12.24C93.1873 12.24 94.5973 12.525 95.8573 13.095C97.1473 13.665 98.2423 14.46 99.1423 15.48C100.042 16.47 100.732 17.655 101.212 19.035C101.692 20.415 101.932 21.93 101.932 23.58V25.29H84.7423V26.37C84.7423 27.39 84.9073 28.335 85.2373 29.205C85.5673 30.075 86.0323 30.825 86.6323 31.455C87.2623 32.085 88.0123 32.58 88.8823 32.94C89.7823 33.27 90.7723 33.435 91.8523 33.435C93.4123 33.435 94.7623 33.075 95.9023 32.355C97.0423 31.635 97.9123 30.645 98.5123 29.385L101.167 31.185C100.477 32.745 99.3223 34.035 97.7023 35.055C96.1123 36.045 94.1623 36.54 91.8523 36.54ZM91.6273 15.21C90.6373 15.21 89.7223 15.39 88.8823 15.75C88.0423 16.11 87.3073 16.605 86.6773 17.235C86.0773 17.865 85.5973 18.615 85.2373 19.485C84.9073 20.325 84.7423 21.255 84.7423 22.275V22.59H98.0623V22.095C98.0623 21.075 97.8973 20.145 97.5673 19.305C97.2673 18.465 96.8323 17.745 96.2623 17.145C95.7223 16.515 95.0473 16.035 94.2373 15.705C93.4573 15.375 92.5873 15.21 91.6273 15.21ZM109.34 36V12.78H112.94V16.56H113.12C113.36 15.99 113.66 15.45 114.02 14.94C114.38 14.4 114.815 13.935 115.325 13.545C115.865 13.155 116.495 12.84 117.215 12.6C117.935 12.36 118.775 12.24 119.735 12.24C122.165 12.24 124.115 13.02 125.585 14.58C127.055 16.11 127.79 18.285 127.79 21.105V36H124.19V21.735C124.19 19.605 123.725 18.03 122.795 17.01C121.865 15.96 120.5 15.435 118.7 15.435C117.98 15.435 117.275 15.525 116.585 15.705C115.895 15.885 115.28 16.155 114.74 16.515C114.2 16.875 113.765 17.34 113.435 17.91C113.105 18.48 112.94 19.14 112.94 19.89V36H109.34ZM145.817 36.54C144.137 36.54 142.622 36.255 141.272 35.685C139.952 35.115 138.812 34.305 137.852 33.255C136.922 32.175 136.202 30.9 135.692 29.43C135.182 27.93 134.927 26.265 134.927 24.435C134.927 22.575 135.182 20.895 135.692 19.395C136.232 17.895 136.967 16.62 137.897 15.57C138.827 14.49 139.937 13.665 141.227 13.095C142.547 12.525 144.002 12.24 145.592 12.24C147.152 12.24 148.562 12.525 149.822 13.095C151.112 13.665 152.207 14.46 153.107 15.48C154.007 16.47 154.697 17.655 155.177 19.035C155.657 20.415 155.897 21.93 155.897 23.58V25.29H138.707V26.37C138.707 27.39 138.872 28.335 139.202 29.205C139.532 30.075 139.997 30.825 140.597 31.455C141.227 32.085 141.977 32.58 142.847 32.94C143.747 33.27 144.737 33.435 145.817 33.435C147.377 33.435 148.727 33.075 149.867 32.355C151.007 31.635 151.877 30.645 152.477 29.385L155.132 31.185C154.442 32.745 153.287 34.035 151.667 35.055C150.077 36.045 148.127 36.54 145.817 36.54ZM145.592 15.21C144.602 15.21 143.687 15.39 142.847 15.75C142.007 16.11 141.272 16.605 140.642 17.235C140.042 17.865 139.562 18.615 139.202 19.485C138.872 20.325 138.707 21.255 138.707 22.275V22.59H152.027V22.095C152.027 21.075 151.862 20.145 151.532 19.305C151.232 18.465 150.797 17.745 150.227 17.145C149.687 16.515 149.012 16.035 148.202 15.705C147.422 15.375 146.552 15.21 145.592 15.21ZM173.52 36C171.75 36 170.445 35.505 169.605 34.515C168.795 33.525 168.39 32.25 168.39 30.69V15.84H160.65V12.78H166.41C167.19 12.78 167.73 12.63 168.03 12.33C168.36 12 168.525 11.445 168.525 10.665V4.59H171.99V12.78H182.565V15.84H171.99V32.94H182.565V36H173.52ZM223.794 36L214.479 4.59H218.484L222.939 20.295L226.314 32.175H226.539L229.914 20.295L234.369 4.59H238.239L228.924 36H223.794ZM243.667 36V32.715H252.667V7.38H252.352L244.432 14.76L242.227 12.375L250.552 4.59H256.447V32.715H264.727V36H243.667ZM311.537 36.045L296.102 28.44V8.55L311.537 0.944998L326.972 8.55V28.44L311.537 36.045ZM301.592 25.47V11.52H303.527V25.47H301.592ZM311.942 29.79L311.087 28.035L320.897 23.175L321.797 24.93L311.942 29.79ZM311.537 32.67L323.912 26.64V10.35L311.537 4.32L299.162 10.35V26.64L311.537 32.67ZM320.897 13.815L311.087 8.955L311.942 7.2L321.797 12.06L320.897 13.815Z"/>
</mask>
<path d="M16.62 21.735H4.38V36H0.6V4.59H4.38V18.45H16.62V4.59H20.4V36H16.62V21.735ZM38.9224 7.65C37.8724 7.65 37.1374 7.44 36.7174 7.02C36.2974 6.57 36.0874 6.015 36.0874 5.355V4.635C36.0874 3.975 36.2974 3.435 36.7174 3.015C37.1374 2.565 37.8724 2.34 38.9224 2.34C39.9724 2.34 40.7074 2.565 41.1274 3.015C41.5474 3.435 41.7574 3.975 41.7574 4.635V5.355C41.7574 6.015 41.5474 6.57 41.1274 7.02C40.7074 7.44 39.9724 7.65 38.9224 7.65ZM28.7524 32.94H37.1224V15.84H28.7524V12.78H40.7224V32.94H48.5524V36H28.7524V32.94ZM62.1698 36L53.8448 12.78H57.4898L60.8198 22.5L64.4198 32.985H64.5998L68.1998 22.5L71.5298 12.78H75.0848L66.7598 36H62.1698ZM91.8523 36.54C90.1723 36.54 88.6573 36.255 87.3073 35.685C85.9873 35.115 84.8473 34.305 83.8873 33.255C82.9573 32.175 82.2373 30.9 81.7273 29.43C81.2173 27.93 80.9623 26.265 80.9623 24.435C80.9623 22.575 81.2173 20.895 81.7273 19.395C82.2673 17.895 83.0023 16.62 83.9323 15.57C84.8623 14.49 85.9723 13.665 87.2623 13.095C88.5823 12.525 90.0373 12.24 91.6273 12.24C93.1873 12.24 94.5973 12.525 95.8573 13.095C97.1473 13.665 98.2423 14.46 99.1423 15.48C100.042 16.47 100.732 17.655 101.212 19.035C101.692 20.415 101.932 21.93 101.932 23.58V25.29H84.7423V26.37C84.7423 27.39 84.9073 28.335 85.2373 29.205C85.5673 30.075 86.0323 30.825 86.6323 31.455C87.2623 32.085 88.0123 32.58 88.8823 32.94C89.7823 33.27 90.7723 33.435 91.8523 33.435C93.4123 33.435 94.7623 33.075 95.9023 32.355C97.0423 31.635 97.9123 30.645 98.5123 29.385L101.167 31.185C100.477 32.745 99.3223 34.035 97.7023 35.055C96.1123 36.045 94.1623 36.54 91.8523 36.54ZM91.6273 15.21C90.6373 15.21 89.7223 15.39 88.8823 15.75C88.0423 16.11 87.3073 16.605 86.6773 17.235C86.0773 17.865 85.5973 18.615 85.2373 19.485C84.9073 20.325 84.7423 21.255 84.7423 22.275V22.59H98.0623V22.095C98.0623 21.075 97.8973 20.145 97.5673 19.305C97.2673 18.465 96.8323 17.745 96.2623 17.145C95.7223 16.515 95.0473 16.035 94.2373 15.705C93.4573 15.375 92.5873 15.21 91.6273 15.21ZM109.34 36V12.78H112.94V16.56H113.12C113.36 15.99 113.66 15.45 114.02 14.94C114.38 14.4 114.815 13.935 115.325 13.545C115.865 13.155 116.495 12.84 117.215 12.6C117.935 12.36 118.775 12.24 119.735 12.24C122.165 12.24 124.115 13.02 125.585 14.58C127.055 16.11 127.79 18.285 127.79 21.105V36H124.19V21.735C124.19 19.605 123.725 18.03 122.795 17.01C121.865 15.96 120.5 15.435 118.7 15.435C117.98 15.435 117.275 15.525 116.585 15.705C115.895 15.885 115.28 16.155 114.74 16.515C114.2 16.875 113.765 17.34 113.435 17.91C113.105 18.48 112.94 19.14 112.94 19.89V36H109.34ZM145.817 36.54C144.137 36.54 142.622 36.255 141.272 35.685C139.952 35.115 138.812 34.305 137.852 33.255C136.922 32.175 136.202 30.9 135.692 29.43C135.182 27.93 134.927 26.265 134.927 24.435C134.927 22.575 135.182 20.895 135.692 19.395C136.232 17.895 136.967 16.62 137.897 15.57C138.827 14.49 139.937 13.665 141.227 13.095C142.547 12.525 144.002 12.24 145.592 12.24C147.152 12.24 148.562 12.525 149.822 13.095C151.112 13.665 152.207 14.46 153.107 15.48C154.007 16.47 154.697 17.655 155.177 19.035C155.657 20.415 155.897 21.93 155.897 23.58V25.29H138.707V26.37C138.707 27.39 138.872 28.335 139.202 29.205C139.532 30.075 139.997 30.825 140.597 31.455C141.227 32.085 141.977 32.58 142.847 32.94C143.747 33.27 144.737 33.435 145.817 33.435C147.377 33.435 148.727 33.075 149.867 32.355C151.007 31.635 151.877 30.645 152.477 29.385L155.132 31.185C154.442 32.745 153.287 34.035 151.667 35.055C150.077 36.045 148.127 36.54 145.817 36.54ZM145.592 15.21C144.602 15.21 143.687 15.39 142.847 15.75C142.007 16.11 141.272 16.605 140.642 17.235C140.042 17.865 139.562 18.615 139.202 19.485C138.872 20.325 138.707 21.255 138.707 22.275V22.59H152.027V22.095C152.027 21.075 151.862 20.145 151.532 19.305C151.232 18.465 150.797 17.745 150.227 17.145C149.687 16.515 149.012 16.035 148.202 15.705C147.422 15.375 146.552 15.21 145.592 15.21ZM173.52 36C171.75 36 170.445 35.505 169.605 34.515C168.795 33.525 168.39 32.25 168.39 30.69V15.84H160.65V12.78H166.41C167.19 12.78 167.73 12.63 168.03 12.33C168.36 12 168.525 11.445 168.525 10.665V4.59H171.99V12.78H182.565V15.84H171.99V32.94H182.565V36H173.52ZM223.794 36L214.479 4.59H218.484L222.939 20.295L226.314 32.175H226.539L229.914 20.295L234.369 4.59H238.239L228.924 36H223.794ZM243.667 36V32.715H252.667V7.38H252.352L244.432 14.76L242.227 12.375L250.552 4.59H256.447V32.715H264.727V36H243.667ZM311.537 36.045L296.102 28.44V8.55L311.537 0.944998L326.972 8.55V28.44L311.537 36.045ZM301.592 25.47V11.52H303.527V25.47H301.592ZM311.942 29.79L311.087 28.035L320.897 23.175L321.797 24.93L311.942 29.79ZM311.537 32.67L323.912 26.64V10.35L311.537 4.32L299.162 10.35V26.64L311.537 32.67ZM320.897 13.815L311.087 8.955L311.942 7.2L321.797 12.06L320.897 13.815Z" fill="url(#paint0_linear_2_11)"/>
<path d="M16.62 21.735H17.62V20.735H16.62V21.735ZM4.38 21.735V20.735H3.38V21.735H4.38ZM4.38 36V37H5.38V36H4.38ZM0.6 36H-0.4V37H0.6V36ZM0.6 4.59V3.59H-0.4V4.59H0.6ZM4.38 4.59H5.38V3.59H4.38V4.59ZM4.38 18.45H3.38V19.45H4.38V18.45ZM16.62 18.45V19.45H17.62V18.45H16.62ZM16.62 4.59V3.59H15.62V4.59H16.62ZM20.4 4.59H21.4V3.59H20.4V4.59ZM20.4 36V37H21.4V36H20.4ZM16.62 36H15.62V37H16.62V36ZM16.62 20.735H4.38V22.735H16.62V20.735ZM3.38 21.735V36H5.38V21.735H3.38ZM4.38 35H0.6V37H4.38V35ZM1.6 36V4.59H-0.4V36H1.6ZM0.6 5.59H4.38V3.59H0.6V5.59ZM3.38 4.59V18.45H5.38V4.59H3.38ZM4.38 19.45H16.62V17.45H4.38V19.45ZM17.62 18.45V4.59H15.62V18.45H17.62ZM16.62 5.59H20.4V3.59H16.62V5.59ZM19.4 4.59V36H21.4V4.59H19.4ZM20.4 35H16.62V37H20.4V35ZM17.62 36V21.735H15.62V36H17.62ZM36.7174 7.02L35.9864 7.70232L35.9981 7.71492L36.0103 7.7271L36.7174 7.02ZM36.7174 3.015L37.4245 3.72211L37.4367 3.70992L37.4485 3.69732L36.7174 3.015ZM41.1274 3.015L40.3964 3.69732L40.4081 3.70992L40.4203 3.72211L41.1274 3.015ZM41.1274 7.02L41.8345 7.7271L41.8467 7.71492L41.8585 7.70232L41.1274 7.02ZM28.7524 32.94V31.94H27.7524V32.94H28.7524ZM37.1224 32.94V33.94H38.1224V32.94H37.1224ZM37.1224 15.84H38.1224V14.84H37.1224V15.84ZM28.7524 15.84H27.7524V16.84H28.7524V15.84ZM28.7524 12.78V11.78H27.7524V12.78H28.7524ZM40.7224 12.78H41.7224V11.78H40.7224V12.78ZM40.7224 32.94H39.7224V33.94H40.7224V32.94ZM48.5524 32.94H49.5524V31.94H48.5524V32.94ZM48.5524 36V37H49.5524V36H48.5524ZM28.7524 36H27.7524V37H28.7524V36ZM38.9224 6.65C37.9501 6.65 37.5566 6.44497 37.4245 6.31289L36.0103 7.7271C36.7182 8.43503 37.7947 8.65 38.9224 8.65V6.65ZM37.4485 6.33768C37.2145 6.08699 37.0874 5.78173 37.0874 5.355H35.0874C35.0874 6.24826 35.3803 7.05301 35.9864 7.70232L37.4485 6.33768ZM37.0874 5.355V4.635H35.0874V5.355H37.0874ZM37.0874 4.635C37.0874 4.20792 37.2137 3.9329 37.4245 3.72211L36.0103 2.30789C35.3811 2.93709 35.0874 3.74208 35.0874 4.635H37.0874ZM37.4485 3.69732C37.5822 3.55409 37.9646 3.34 38.9224 3.34V1.34C37.7803 1.34 36.6927 1.5759 35.9864 2.33268L37.4485 3.69732ZM38.9224 3.34C39.8803 3.34 40.2627 3.55409 40.3964 3.69732L41.8585 2.33268C41.1522 1.5759 40.0646 1.34 38.9224 1.34V3.34ZM40.4203 3.72211C40.6311 3.9329 40.7574 4.20792 40.7574 4.635H42.7574C42.7574 3.74208 42.4637 2.93709 41.8345 2.30789L40.4203 3.72211ZM40.7574 4.635V5.355H42.7574V4.635H40.7574ZM40.7574 5.355C40.7574 5.78173 40.6303 6.08699 40.3964 6.33768L41.8585 7.70232C42.4645 7.05301 42.7574 6.24826 42.7574 5.355H40.7574ZM40.4203 6.31289C40.2882 6.44497 39.8947 6.65 38.9224 6.65V8.65C40.0501 8.65 41.1266 8.43503 41.8345 7.7271L40.4203 6.31289ZM28.7524 33.94H37.1224V31.94H28.7524V33.94ZM38.1224 32.94V15.84H36.1224V32.94H38.1224ZM37.1224 14.84H28.7524V16.84H37.1224V14.84ZM29.7524 15.84V12.78H27.7524V15.84H29.7524ZM28.7524 13.78H40.7224V11.78H28.7524V13.78ZM39.7224 12.78V32.94H41.7224V12.78H39.7224ZM40.7224 33.94H48.5524V31.94H40.7224V33.94ZM47.5524 32.94V36H49.5524V32.94H47.5524ZM48.5524 35H28.7524V37H48.5524V35ZM29.7524 36V32.94H27.7524V36H29.7524ZM62.1698 36L61.2285 36.3375L61.466 37H62.1698V36ZM53.8448 12.78V11.78H52.424L52.9035 13.1175L53.8448 12.78ZM57.4898 12.78L58.4359 12.4559L58.2043 11.78H57.4898V12.78ZM60.8198 22.5L59.8738 22.8241L59.874 22.8247L60.8198 22.5ZM64.4198 32.985L63.474 33.3097L63.7059 33.985H64.4198V32.985ZM64.5998 32.985V33.985H65.3138L65.5456 33.3097L64.5998 32.985ZM68.1998 22.5L69.1456 22.8247L69.1459 22.8241L68.1998 22.5ZM71.5298 12.78V11.78H70.8154L70.5838 12.4559L71.5298 12.78ZM75.0848 12.78L76.0262 13.1175L76.5057 11.78H75.0848V12.78ZM66.7598 36V37H67.4636L67.7012 36.3375L66.7598 36ZM63.1112 35.6625L54.7862 12.4425L52.9035 13.1175L61.2285 36.3375L63.1112 35.6625ZM53.8448 13.78H57.4898V11.78H53.8448V13.78ZM56.5438 13.1041L59.8738 22.8241L61.7659 22.1759L58.4359 12.4559L56.5438 13.1041ZM59.874 22.8247L63.474 33.3097L65.3656 32.6603L61.7656 22.1753L59.874 22.8247ZM64.4198 33.985H64.5998V31.985H64.4198V33.985ZM65.5456 33.3097L69.1456 22.8247L67.254 22.1753L63.654 32.6603L65.5456 33.3097ZM69.1459 22.8241L72.4759 13.1041L70.5838 12.4559L67.2538 22.1759L69.1459 22.8241ZM71.5298 13.78H75.0848V11.78H71.5298V13.78ZM74.1435 12.4425L65.8185 35.6625L67.7012 36.3375L76.0262 13.1175L74.1435 12.4425ZM66.7598 35H62.1698V37H66.7598V35ZM87.3073 35.685L86.9108 36.6031L86.9183 36.6063L87.3073 35.685ZM83.8873 33.255L83.1295 33.9075L83.1392 33.9188L83.1492 33.9298L83.8873 33.255ZM81.7273 29.43L80.7805 29.7519L80.7825 29.7578L81.7273 29.43ZM81.7273 19.395L80.7864 19.0563L80.7834 19.0647L80.7805 19.0731L81.7273 19.395ZM83.9323 15.57L84.6809 16.2331L84.69 16.2225L83.9323 15.57ZM87.2623 13.095L86.8658 12.1769L86.8581 12.1803L87.2623 13.095ZM95.8573 13.095L95.4451 14.0061L95.4531 14.0097L95.8573 13.095ZM99.1423 15.48L98.3924 16.1416L98.3973 16.1472L98.4023 16.1527L99.1423 15.48ZM101.212 19.035L100.268 19.3635V19.3635L101.212 19.035ZM101.932 25.29V26.29H102.932V25.29H101.932ZM84.7423 25.29V24.29H83.7423V25.29H84.7423ZM85.2373 29.205L84.3023 29.5597L85.2373 29.205ZM86.6323 31.455L85.9081 32.1447L85.9165 32.1535L85.9252 32.1621L86.6323 31.455ZM88.8823 32.94L88.4999 33.864L88.5188 33.8718L88.538 33.8789L88.8823 32.94ZM95.9023 32.355L96.4363 33.2005L95.9023 32.355ZM98.5123 29.385L99.0734 28.5573L98.1099 27.904L97.6094 28.9551L98.5123 29.385ZM101.167 31.185L102.082 31.5895L102.42 30.8259L101.728 30.3573L101.167 31.185ZM97.7023 35.055L98.2308 35.9039L98.2351 35.9012L97.7023 35.055ZM86.6773 17.235L85.9702 16.5279L85.9615 16.5365L85.9531 16.5453L86.6773 17.235ZM85.2373 19.485L84.3132 19.1026L84.3098 19.111L84.3065 19.1193L85.2373 19.485ZM84.7423 22.59H83.7423V23.59H84.7423V22.59ZM98.0623 22.59V23.59H99.0623V22.59H98.0623ZM97.5673 19.305L96.6255 19.6413L96.6308 19.6561L96.6365 19.6707L97.5673 19.305ZM96.2623 17.145L95.503 17.7958L95.5197 17.8152L95.5373 17.8337L96.2623 17.145ZM94.2373 15.705L93.8476 16.626L93.86 16.6311L94.2373 15.705ZM91.8523 35.54C90.2865 35.54 88.9064 35.2747 87.6962 34.7638L86.9183 36.6063C88.4081 37.2353 90.0581 37.54 91.8523 37.54V35.54ZM87.7037 34.7669C86.5121 34.2524 85.4889 33.5248 84.6253 32.5802L83.1492 33.9298C84.2057 35.0852 85.4625 35.9776 86.9108 36.6031L87.7037 34.7669ZM84.645 32.6025C83.8045 31.6264 83.1445 30.4641 82.672 29.1022L80.7825 29.7578C81.33 31.3359 82.11 32.7236 83.1295 33.9075L84.645 32.6025ZM82.674 29.1081C82.2043 27.7264 81.9623 26.1722 81.9623 24.435H79.9623C79.9623 26.3578 80.2303 28.1336 80.7805 29.7519L82.674 29.1081ZM81.9623 24.435C81.9623 22.6659 82.2048 21.097 82.674 19.7169L80.7805 19.0731C80.2297 20.693 79.9623 22.4841 79.9623 24.435H81.9623ZM82.6682 19.7337C83.171 18.3369 83.8456 17.176 84.6809 16.233L83.1837 14.907C82.1589 16.064 81.3635 17.4531 80.7864 19.0563L82.6682 19.7337ZM84.69 16.2225C85.5242 15.2539 86.5138 14.519 87.6664 14.0097L86.8581 12.1803C85.4307 12.811 84.2004 13.7261 83.1745 14.9175L84.69 16.2225ZM87.6587 14.0131C88.8409 13.5026 90.1591 13.24 91.6273 13.24V11.24C89.9154 11.24 88.3237 11.5474 86.8658 12.1769L87.6587 14.0131ZM91.6273 13.24C93.0634 13.24 94.3302 13.5018 95.4451 14.0061L96.2694 12.1839C94.8643 11.5482 93.3112 11.24 91.6273 11.24V13.24ZM95.4531 14.0097C96.6159 14.5235 97.5916 15.234 98.3924 16.1416L99.8921 14.8184C98.893 13.686 97.6786 12.8065 96.2614 12.1803L95.4531 14.0097ZM98.4023 16.1527C99.2036 17.0341 99.8279 18.099 100.268 19.3635L102.157 18.7065C101.637 17.211 100.881 15.9059 99.8822 14.8073L98.4023 16.1527ZM100.268 19.3635C100.707 20.6252 100.932 22.0275 100.932 23.58H102.932C102.932 21.8325 102.678 20.2048 102.157 18.7065L100.268 19.3635ZM100.932 23.58V25.29H102.932V23.58H100.932ZM101.932 24.29H84.7423V26.29H101.932V24.29ZM83.7423 25.29V26.37H85.7423V25.29H83.7423ZM83.7423 26.37C83.7423 27.4995 83.9253 28.5659 84.3023 29.5597L86.1723 28.8503C85.8892 28.1041 85.7423 27.2805 85.7423 26.37H83.7423ZM84.3023 29.5597C84.6762 30.5455 85.21 31.4116 85.9081 32.1447L87.3564 30.7653C86.8546 30.2384 86.4583 29.6045 86.1723 28.8503L84.3023 29.5597ZM85.9252 32.1621C86.6533 32.8903 87.5155 33.4567 88.4999 33.864L89.2646 32.016C88.5091 31.7033 87.8712 31.2797 87.3394 30.7479L85.9252 32.1621ZM88.538 33.8789C89.5613 34.2541 90.6696 34.435 91.8523 34.435V32.435C90.875 32.435 90.0032 32.2859 89.2265 32.0011L88.538 33.8789ZM91.8523 34.435C93.571 34.435 95.1126 34.0365 96.4363 33.2005L95.3683 31.5095C94.4119 32.1135 93.2535 32.435 91.8523 32.435V34.435ZM96.4363 33.2005C97.7418 32.3759 98.7369 31.2392 99.4151 29.8149L97.6094 28.9551C97.0876 30.0508 96.3427 30.8941 95.3683 31.5095L96.4363 33.2005ZM97.9511 30.2127L100.606 32.0127L101.728 30.3573L99.0734 28.5573L97.9511 30.2127ZM100.253 30.7805C99.6528 32.1368 98.6424 33.2813 97.1695 34.2088L98.2351 35.9012C100.002 34.7887 101.302 33.3532 102.082 31.5895L100.253 30.7805ZM97.1737 34.2061C95.7756 35.0766 94.019 35.54 91.8523 35.54V37.54C94.3055 37.54 96.4489 37.0134 98.2308 35.9039L97.1737 34.2061ZM91.6273 14.21C90.5132 14.21 89.4629 14.4132 88.4883 14.8309L89.2762 16.6691C89.9817 16.3668 90.7613 16.21 91.6273 16.21V14.21ZM88.4883 14.8309C87.5345 15.2397 86.6925 15.8056 85.9702 16.5279L87.3844 17.9421C87.9221 17.4044 88.55 16.9803 89.2762 16.6691L88.4883 14.8309ZM85.9531 16.5453C85.2614 17.2717 84.7165 18.1282 84.3132 19.1026L86.1613 19.8674C86.4781 19.1018 86.8932 18.4583 87.4014 17.9247L85.9531 16.5453ZM84.3065 19.1193C83.9252 20.09 83.7423 21.146 83.7423 22.275H85.7423C85.7423 21.364 85.8893 20.56 86.168 19.8507L84.3065 19.1193ZM83.7423 22.275V22.59H85.7423V22.275H83.7423ZM84.7423 23.59H98.0623V21.59H84.7423V23.59ZM99.0623 22.59V22.095H97.0623V22.59H99.0623ZM99.0623 22.095C99.0623 20.966 98.8793 19.91 98.498 18.9393L96.6365 19.6707C96.9152 20.38 97.0623 21.184 97.0623 22.095H99.0623ZM98.509 18.9687C98.1658 18.0077 97.6606 17.165 96.9873 16.4562L95.5373 17.8337C96.004 18.325 96.3687 18.9223 96.6255 19.6413L98.509 18.9687ZM97.0215 16.4942C96.3723 15.7368 95.5638 15.1656 94.6146 14.7789L93.86 16.6311C94.5308 16.9044 95.0722 17.2932 95.503 17.7958L97.0215 16.4942ZM94.6269 14.784C93.7082 14.3954 92.7033 14.21 91.6273 14.21V16.21C92.4712 16.21 93.2063 16.3546 93.8476 16.626L94.6269 14.784ZM109.34 36H108.34V37H109.34V36ZM109.34 12.78V11.78H108.34V12.78H109.34ZM112.94 12.78H113.94V11.78H112.94V12.78ZM112.94 16.56H111.94V17.56H112.94V16.56ZM113.12 16.56V17.56H113.784L114.041 16.9481L113.12 16.56ZM114.02 14.94L114.837 15.5167L114.844 15.5058L114.852 15.4947L114.02 14.94ZM115.325 13.545L114.739 12.7343L114.728 12.7423L114.717 12.7506L115.325 13.545ZM117.215 12.6L116.898 11.6513V11.6513L117.215 12.6ZM125.585 14.58L124.857 15.2658L124.864 15.2728L125.585 14.58ZM127.79 36V37H128.79V36H127.79ZM124.19 36H123.19V37H124.19V36ZM122.795 17.01L122.046 17.673L122.051 17.6784L122.056 17.6838L122.795 17.01ZM116.585 15.705L116.332 14.7374L116.585 15.705ZM113.435 17.91L114.3 18.411L113.435 17.91ZM112.94 36V37H113.94V36H112.94ZM110.34 36V12.78H108.34V36H110.34ZM109.34 13.78H112.94V11.78H109.34V13.78ZM111.94 12.78V16.56H113.94V12.78H111.94ZM112.94 17.56H113.12V15.56H112.94V17.56ZM114.041 16.9481C114.253 16.4451 114.518 15.9683 114.837 15.5167L113.203 14.3633C112.802 14.9317 112.466 15.5349 112.198 16.1719L114.041 16.9481ZM114.852 15.4947C115.151 15.0454 115.511 14.6617 115.932 14.3394L114.717 12.7506C114.119 13.2083 113.608 13.7546 113.188 14.3853L114.852 15.4947ZM115.91 14.3557C116.357 14.0327 116.894 13.761 117.531 13.5487L116.898 11.6513C116.095 11.919 115.372 12.2773 114.739 12.7343L115.91 14.3557ZM117.531 13.5487C118.126 13.3503 118.855 13.24 119.735 13.24V11.24C118.694 11.24 117.743 11.3697 116.898 11.6513L117.531 13.5487ZM119.735 13.24C121.93 13.24 123.602 13.934 124.857 15.2658L126.312 13.8942C124.627 12.106 122.4 11.24 119.735 11.24V13.24ZM124.864 15.2728C126.102 16.5619 126.79 18.4559 126.79 21.105H128.79C128.79 18.1141 128.007 15.6581 126.306 13.8872L124.864 15.2728ZM126.79 21.105V36H128.79V21.105H126.79ZM127.79 35H124.19V37H127.79V35ZM125.19 36V21.735H123.19V36H125.19ZM125.19 21.735C125.19 19.4862 124.703 17.6183 123.534 16.3362L122.056 17.6838C122.747 18.4417 123.19 19.7238 123.19 21.735H125.19ZM123.543 16.347C122.373 15.0254 120.699 14.435 118.7 14.435V16.435C120.3 16.435 121.357 16.8946 122.046 17.673L123.543 16.347ZM118.7 14.435C117.895 14.435 117.105 14.5357 116.332 14.7374L116.837 16.6726C117.444 16.5143 118.064 16.435 118.7 16.435V14.435ZM116.332 14.7374C115.545 14.9427 114.826 15.2555 114.185 15.6829L115.294 17.347C115.733 17.0545 116.244 16.8273 116.837 16.6726L116.332 14.7374ZM114.185 15.6829C113.515 16.1293 112.975 16.7083 112.569 17.409L114.3 18.411C114.554 17.9717 114.884 17.6207 115.294 17.347L114.185 15.6829ZM112.569 17.409C112.139 18.1514 111.94 18.9889 111.94 19.89H113.94C113.94 19.2911 114.07 18.8086 114.3 18.411L112.569 17.409ZM111.94 19.89V36H113.94V19.89H111.94ZM112.94 35H109.34V37H112.94V35ZM141.272 35.685L140.876 36.6031L140.883 36.6063L141.272 35.685ZM137.852 33.255L137.094 33.9075L137.104 33.9188L137.114 33.9298L137.852 33.255ZM135.692 29.43L134.745 29.7519L134.747 29.7578L135.692 29.43ZM135.692 19.395L134.751 19.0563L134.748 19.0647L134.745 19.0731L135.692 19.395ZM137.897 15.57L138.646 16.2331L138.655 16.2225L137.897 15.57ZM141.227 13.095L140.831 12.1769L140.823 12.1803L141.227 13.095ZM149.822 13.095L149.41 14.0061L149.418 14.0097L149.822 13.095ZM153.107 15.48L152.357 16.1416L152.362 16.1472L152.367 16.1527L153.107 15.48ZM155.177 19.035L154.233 19.3635V19.3635L155.177 19.035ZM155.897 25.29V26.29H156.897V25.29H155.897ZM138.707 25.29V24.29H137.707V25.29H138.707ZM139.202 29.205L138.267 29.5597L139.202 29.205ZM140.597 31.455L139.873 32.1447L139.881 32.1535L139.89 32.1621L140.597 31.455ZM142.847 32.94L142.465 33.864L142.484 33.8718L142.503 33.8789L142.847 32.94ZM149.867 32.355L150.401 33.2005L149.867 32.355ZM152.477 29.385L153.038 28.5573L152.075 27.904L151.574 28.9551L152.477 29.385ZM155.132 31.185L156.047 31.5895L156.384 30.8259L155.693 30.3573L155.132 31.185ZM151.667 35.055L152.196 35.9039L152.2 35.9012L151.667 35.055ZM140.642 17.235L139.935 16.5279L139.926 16.5365L139.918 16.5453L140.642 17.235ZM139.202 19.485L138.278 19.1026L138.275 19.111L138.271 19.1193L139.202 19.485ZM138.707 22.59H137.707V23.59H138.707V22.59ZM152.027 22.59V23.59H153.027V22.59H152.027ZM151.532 19.305L150.59 19.6413L150.596 19.6561L150.601 19.6707L151.532 19.305ZM150.227 17.145L149.468 17.7958L149.484 17.8152L149.502 17.8337L150.227 17.145ZM148.202 15.705L147.812 16.626L147.825 16.6311L148.202 15.705ZM145.817 35.54C144.251 35.54 142.871 35.2747 141.661 34.7638L140.883 36.6063C142.373 37.2353 144.023 37.54 145.817 37.54V35.54ZM141.669 34.7669C140.477 34.2524 139.454 33.5248 138.59 32.5802L137.114 33.9298C138.171 35.0852 139.427 35.9776 140.876 36.6031L141.669 34.7669ZM138.61 32.6025C137.769 31.6264 137.109 30.4641 136.637 29.1022L134.747 29.7578C135.295 31.3359 136.075 32.7236 137.094 33.9075L138.61 32.6025ZM136.639 29.1081C136.169 27.7264 135.927 26.1722 135.927 24.435H133.927C133.927 26.3578 134.195 28.1336 134.745 29.7519L136.639 29.1081ZM135.927 24.435C135.927 22.6659 136.17 21.097 136.639 19.7169L134.745 19.0731C134.195 20.693 133.927 22.4841 133.927 24.435H135.927ZM136.633 19.7337C137.136 18.3369 137.81 17.176 138.646 16.233L137.149 14.907C136.124 16.064 135.328 17.4531 134.751 19.0563L136.633 19.7337ZM138.655 16.2225C139.489 15.2539 140.479 14.519 141.631 14.0097L140.823 12.1803C139.396 12.811 138.165 13.7261 137.139 14.9175L138.655 16.2225ZM141.624 14.0131C142.806 13.5026 144.124 13.24 145.592 13.24V11.24C143.88 11.24 142.289 11.5474 140.831 12.1769L141.624 14.0131ZM145.592 13.24C147.028 13.24 148.295 13.5018 149.41 14.0061L150.234 12.1839C148.829 11.5482 147.276 11.24 145.592 11.24V13.24ZM149.418 14.0097C150.581 14.5235 151.556 15.234 152.357 16.1416L153.857 14.8184C152.858 13.686 151.643 12.8065 150.226 12.1803L149.418 14.0097ZM152.367 16.1527C153.168 17.0341 153.793 18.099 154.233 19.3635L156.122 18.7065C155.601 17.211 154.846 15.9059 153.847 14.8073L152.367 16.1527ZM154.233 19.3635C154.671 20.6252 154.897 22.0275 154.897 23.58H156.897C156.897 21.8325 156.643 20.2048 156.122 18.7065L154.233 19.3635ZM154.897 23.58V25.29H156.897V23.58H154.897ZM155.897 24.29H138.707V26.29H155.897V24.29ZM137.707 25.29V26.37H139.707V25.29H137.707ZM137.707 26.37C137.707 27.4995 137.89 28.5659 138.267 29.5597L140.137 28.8503C139.854 28.1041 139.707 27.2805 139.707 26.37H137.707ZM138.267 29.5597C138.641 30.5455 139.175 31.4116 139.873 32.1447L141.321 30.7653C140.819 30.2384 140.423 29.6045 140.137 28.8503L138.267 29.5597ZM139.89 32.1621C140.618 32.8903 141.48 33.4567 142.465 33.864L143.229 32.016C142.474 31.7033 141.836 31.2797 141.304 30.7479L139.89 32.1621ZM142.503 33.8789C143.526 34.2541 144.634 34.435 145.817 34.435V32.435C144.84 32.435 143.968 32.2859 143.191 32.0011L142.503 33.8789ZM145.817 34.435C147.536 34.435 149.077 34.0365 150.401 33.2005L149.333 31.5095C148.377 32.1135 147.218 32.435 145.817 32.435V34.435ZM150.401 33.2005C151.707 32.3759 152.702 31.2392 153.38 29.8149L151.574 28.9551C151.052 30.0508 150.308 30.8941 149.333 31.5095L150.401 33.2005ZM151.916 30.2127L154.571 32.0127L155.693 30.3573L153.038 28.5573L151.916 30.2127ZM154.218 30.7805C153.618 32.1368 152.607 33.2813 151.134 34.2088L152.2 35.9012C153.967 34.7887 155.267 33.3532 156.047 31.5895L154.218 30.7805ZM151.139 34.2061C149.74 35.0766 147.984 35.54 145.817 35.54V37.54C148.27 37.54 150.414 37.0134 152.196 35.9039L151.139 34.2061ZM145.592 14.21C144.478 14.21 143.428 14.4132 142.453 14.8309L143.241 16.6691C143.946 16.3668 144.726 16.21 145.592 16.21V14.21ZM142.453 14.8309C141.499 15.2397 140.657 15.8056 139.935 16.5279L141.349 17.9421C141.887 17.4044 142.515 16.9803 143.241 16.6691L142.453 14.8309ZM139.918 16.5453C139.226 17.2717 138.681 18.1282 138.278 19.1026L140.126 19.8674C140.443 19.1018 140.858 18.4583 141.366 17.9247L139.918 16.5453ZM138.271 19.1193C137.89 20.09 137.707 21.146 137.707 22.275H139.707C139.707 21.364 139.854 20.56 140.133 19.8507L138.271 19.1193ZM137.707 22.275V22.59H139.707V22.275H137.707ZM138.707 23.59H152.027V21.59H138.707V23.59ZM153.027 22.59V22.095H151.027V22.59H153.027ZM153.027 22.095C153.027 20.966 152.844 19.91 152.463 18.9393L150.601 19.6707C150.88 20.38 151.027 21.184 151.027 22.095H153.027ZM152.474 18.9687C152.131 18.0077 151.625 17.165 150.952 16.4562L149.502 17.8337C149.969 18.325 150.334 18.9223 150.59 19.6413L152.474 18.9687ZM150.986 16.4942C150.337 15.7368 149.529 15.1656 148.579 14.7789L147.825 16.6311C148.496 16.9044 149.037 17.2932 149.468 17.7958L150.986 16.4942ZM148.592 14.784C147.673 14.3954 146.668 14.21 145.592 14.21V16.21C146.436 16.21 147.171 16.3546 147.812 16.626L148.592 14.784ZM169.605 34.515L168.831 35.1482L168.836 35.1552L168.842 35.162L169.605 34.515ZM168.39 15.84H169.39V14.84H168.39V15.84ZM160.65 15.84H159.65V16.84H160.65V15.84ZM160.65 12.78V11.78H159.65V12.78H160.65ZM168.03 12.33L167.322 11.6229V11.6229L168.03 12.33ZM168.525 4.59V3.59H167.525V4.59H168.525ZM171.99 4.59H172.99V3.59H171.99V4.59ZM171.99 12.78H170.99V13.78H171.99V12.78ZM182.565 12.78H183.565V11.78H182.565V12.78ZM182.565 15.84V16.84H183.565V15.84H182.565ZM171.99 15.84V14.84H170.99V15.84H171.99ZM171.99 32.94H170.99V33.94H171.99V32.94ZM182.565 32.94H183.565V31.94H182.565V32.94ZM182.565 36V37H183.565V36H182.565ZM173.52 35C171.931 35 170.955 34.5607 170.367 33.868L168.842 35.162C169.934 36.4493 171.568 37 173.52 37V35ZM170.378 33.8818C169.745 33.1072 169.39 32.0716 169.39 30.69H167.39C167.39 32.4284 167.844 33.9428 168.831 35.1482L170.378 33.8818ZM169.39 30.69V15.84H167.39V30.69H169.39ZM168.39 14.84H160.65V16.84H168.39V14.84ZM161.65 15.84V12.78H159.65V15.84H161.65ZM160.65 13.78H166.41V11.78H160.65V13.78ZM166.41 13.78C167.254 13.78 168.143 13.6303 168.737 13.0371L167.322 11.6229C167.327 11.618 167.287 11.6608 167.132 11.704C166.976 11.7474 166.742 11.78 166.41 11.78V13.78ZM168.737 13.0371C169.347 12.4272 169.525 11.5421 169.525 10.665H167.525C167.525 11.3479 167.372 11.5728 167.322 11.6229L168.737 13.0371ZM169.525 10.665V4.59H167.525V10.665H169.525ZM168.525 5.59H171.99V3.59H168.525V5.59ZM170.99 4.59V12.78H172.99V4.59H170.99ZM171.99 13.78H182.565V11.78H171.99V13.78ZM181.565 12.78V15.84H183.565V12.78H181.565ZM182.565 14.84H171.99V16.84H182.565V14.84ZM170.99 15.84V32.94H172.99V15.84H170.99ZM171.99 33.94H182.565V31.94H171.99V33.94ZM181.565 32.94V36H183.565V32.94H181.565ZM182.565 35H173.52V37H182.565V35ZM223.794 36L222.836 36.2843L223.048 37H223.794V36ZM214.479 4.59V3.59H213.14L213.521 4.87432L214.479 4.59ZM218.484 4.59L219.446 4.3171L219.24 3.59H218.484V4.59ZM222.939 20.295L221.977 20.5679L221.977 20.5683L222.939 20.295ZM226.314 32.175L225.352 32.4483L225.559 33.175H226.314V32.175ZM226.539 32.175V33.175H227.295L227.501 32.4483L226.539 32.175ZM229.914 20.295L230.876 20.5683L230.876 20.5679L229.914 20.295ZM234.369 4.59V3.59H233.614L233.407 4.3171L234.369 4.59ZM238.239 4.59L239.198 4.87432L239.579 3.59H238.239V4.59ZM228.924 36V37H229.671L229.883 36.2843L228.924 36ZM224.753 35.7157L215.438 4.30568L213.521 4.87432L222.836 36.2843L224.753 35.7157ZM214.479 5.59H218.484V3.59H214.479V5.59ZM217.522 4.8629L221.977 20.5679L223.901 20.0221L219.446 4.3171L217.522 4.8629ZM221.977 20.5683L225.352 32.4483L227.276 31.9017L223.901 20.0217L221.977 20.5683ZM226.314 33.175H226.539V31.175H226.314V33.175ZM227.501 32.4483L230.876 20.5683L228.952 20.0217L225.577 31.9017L227.501 32.4483ZM230.876 20.5679L235.331 4.8629L233.407 4.3171L228.952 20.0221L230.876 20.5679ZM234.369 5.59H238.239V3.59H234.369V5.59ZM237.281 4.30568L227.966 35.7157L229.883 36.2843L239.198 4.87432L237.281 4.30568ZM228.924 35H223.794V37H228.924V35ZM243.667 36H242.667V37H243.667V36ZM243.667 32.715V31.715H242.667V32.715H243.667ZM252.667 32.715V33.715H253.667V32.715H252.667ZM252.667 7.38H253.667V6.38H252.667V7.38ZM252.352 7.38V6.38H251.958L251.67 6.64839L252.352 7.38ZM244.432 14.76L243.698 15.4389L244.379 16.176L245.114 15.4916L244.432 14.76ZM242.227 12.375L241.544 11.6446L240.818 12.3237L241.493 13.0539L242.227 12.375ZM250.552 4.59V3.59H250.157L249.869 3.8596L250.552 4.59ZM256.447 4.59H257.447V3.59H256.447V4.59ZM256.447 32.715H255.447V33.715H256.447V32.715ZM264.727 32.715H265.727V31.715H264.727V32.715ZM264.727 36V37H265.727V36H264.727ZM244.667 36V32.715H242.667V36H244.667ZM243.667 33.715H252.667V31.715H243.667V33.715ZM253.667 32.715V7.38H251.667V32.715H253.667ZM252.667 6.38H252.352V8.38H252.667V6.38ZM251.67 6.64839L243.75 14.0284L245.114 15.4916L253.034 8.11161L251.67 6.64839ZM245.166 14.0811L242.961 11.6961L241.493 13.0539L243.698 15.4389L245.166 14.0811ZM242.91 13.1054L251.235 5.3204L249.869 3.8596L241.544 11.6446L242.91 13.1054ZM250.552 5.59H256.447V3.59H250.552V5.59ZM255.447 4.59V32.715H257.447V4.59H255.447ZM256.447 33.715H264.727V31.715H256.447V33.715ZM263.727 32.715V36H265.727V32.715H263.727ZM264.727 35H243.667V37H264.727V35ZM311.537 36.045L311.095 36.942L311.537 37.1598L311.979 36.942L311.537 36.045ZM296.102 28.44H295.102V29.0621L295.66 29.337L296.102 28.44ZM296.102 8.55L295.66 7.65297L295.102 7.92792V8.55H296.102ZM311.537 0.944998L311.979 0.0479708L311.537 -0.169795L311.095 0.0479708L311.537 0.944998ZM326.972 8.55H327.972V7.92792L327.414 7.65297L326.972 8.55ZM326.972 28.44L327.414 29.337L327.972 29.0621V28.44H326.972ZM301.592 25.47H300.592V26.47H301.592V25.47ZM301.592 11.52V10.52H300.592V11.52H301.592ZM303.527 11.52H304.527V10.52H303.527V11.52ZM303.527 25.47V26.47H304.527V25.47H303.527ZM311.942 29.79L311.043 30.228L311.483 31.1313L312.384 30.6869L311.942 29.79ZM311.087 28.035L310.643 27.1389L309.753 27.5799L310.188 28.473L311.087 28.035ZM320.897 23.175L321.786 22.7187L321.336 21.8411L320.453 22.2789L320.897 23.175ZM321.797 24.93L322.239 25.8269L323.15 25.3776L322.686 24.4737L321.797 24.93ZM311.537 32.67L311.099 33.569L311.537 33.7824L311.975 33.569L311.537 32.67ZM323.912 26.64L324.35 27.539L324.912 27.2651V26.64H323.912ZM323.912 10.35H324.912V9.72487L324.35 9.45104L323.912 10.35ZM311.537 4.32L311.975 3.42104L311.537 3.2076L311.099 3.42104L311.537 4.32ZM299.162 10.35L298.724 9.45104L298.162 9.72487V10.35H299.162ZM299.162 26.64H298.162V27.2651L298.724 27.539L299.162 26.64ZM320.897 13.815L320.453 14.7111L321.336 15.1489L321.786 14.2713L320.897 13.815ZM311.087 8.955L310.188 8.51703L309.753 9.41008L310.643 9.85106L311.087 8.955ZM311.942 7.2L312.384 6.30313L311.483 5.8587L311.043 6.76203L311.942 7.2ZM321.797 12.06L322.686 12.5163L323.15 11.6124L322.239 11.1631L321.797 12.06ZM311.979 35.148L296.544 27.543L295.66 29.337L311.095 36.942L311.979 35.148ZM297.102 28.44V8.55H295.102V28.44H297.102ZM296.544 9.44703L311.979 1.84202L311.095 0.0479708L295.66 7.65297L296.544 9.44703ZM311.095 1.84202L326.53 9.44703L327.414 7.65297L311.979 0.0479708L311.095 1.84202ZM325.972 8.55V28.44H327.972V8.55H325.972ZM326.53 27.543L311.095 35.148L311.979 36.942L327.414 29.337L326.53 27.543ZM302.592 25.47V11.52H300.592V25.47H302.592ZM301.592 12.52H303.527V10.52H301.592V12.52ZM302.527 11.52V25.47H304.527V11.52H302.527ZM303.527 24.47H301.592V26.47H303.527V24.47ZM312.841 29.352L311.986 27.597L310.188 28.473L311.043 30.228L312.841 29.352ZM311.531 28.9311L321.341 24.0711L320.453 22.2789L310.643 27.1389L311.531 28.9311ZM320.007 23.6313L320.907 25.3863L322.686 24.4737L321.786 22.7187L320.007 23.6313ZM321.354 24.0331L311.499 28.8931L312.384 30.6869L322.239 25.8269L321.354 24.0331ZM311.975 33.569L324.35 27.539L323.474 25.741L311.099 31.771L311.975 33.569ZM324.912 26.64V10.35H322.912V26.64H324.912ZM324.35 9.45104L311.975 3.42104L311.099 5.21895L323.474 11.249L324.35 9.45104ZM311.099 3.42104L298.724 9.45104L299.6 11.249L311.975 5.21895L311.099 3.42104ZM298.162 10.35V26.64H300.162V10.35H298.162ZM298.724 27.539L311.099 33.569L311.975 31.771L299.6 25.741L298.724 27.539ZM321.341 12.9189L311.531 8.05893L310.643 9.85106L320.453 14.7111L321.341 12.9189ZM311.986 9.39297L312.841 7.63797L311.043 6.76203L310.188 8.51703L311.986 9.39297ZM311.499 8.09687L321.354 12.9569L322.239 11.1631L312.384 6.30313L311.499 8.09687ZM320.907 11.6037L320.007 13.3587L321.786 14.2713L322.686 12.5163L320.907 11.6037Z" fill="black" mask="url(#path-1-outside-1_2_11)"/>
<defs>
<linearGradient id="paint0_linear_2_11" x1="-33.2167" y1="-10" x2="367.913" y2="59.2768" gradientUnits="userSpaceOnUse">
<stop stop-color="white"/>
<stop offset="0.085" stop-color="#FF76D9"/>
<stop offset="1" stop-color="#FDD33E"/>
</linearGradient>
</defs>
</svg>
